<svg xmlns="http://www.w3.org/2000/svg" viewBox="0 0 883.03 967.83"><defs><style>.a{fill:#49c6e5;}.b{fill:#fff;}.c{fill:none;stroke:#fff;stroke-miterlimit:10;stroke-width:61px;}</style></defs><title>logo</title><path class="a" d="M841,292c-67.16-68.71-134.39,35.64-243,35.68s-181-76.85-268.13-73.63S209,306.8,148.56,324.38C40.87,482.63,55.56,935,496,935S993,435,841,292Z" transform="translate(-58.48 -11.32)"/><path class="b" d="M453.93,662.18a20.69,20.69,0,0,1,6.17,15.2,19.14,19.14,0,0,1-6.17,14.72,21.59,21.59,0,0,1-15.2,5.7H270.1q-9.51,0-15.67-5.94T248.25,676q0-8.55,6.65-16.15L360.83,544.85q44.17-47,44.17-83.13,0-25.65-16.86-42.51t-43-16.86q-17.58,0-33.72,10t-26.12,28.5q-7.6,10-18,10-8.08,0-15.2-6.17t-7.12-14.25a20.7,20.7,0,0,1,3.56-10.93,107.61,107.61,0,0,1,10.21-13.3,113.58,113.58,0,0,1,39.9-33.25q24.23-12.35,48.92-12.35,31.82,0,55.1,12.83a90.22,90.22,0,0,1,35.86,35.15q12.58,22.33,12.59,51.3,0,54.63-58.9,117.8L320.45,656H438.73A20.69,20.69,0,0,1,453.93,662.18Z" transform="translate(-58.48 -11.32)"/><path class="b" d="M747,566.94a19.91,19.91,0,0,1,6.17,15A19.14,19.14,0,0,1,747,596.63a21.59,21.59,0,0,1-15.2,5.7H706.63V675a22.7,22.7,0,0,1-22.8,22.8,21.18,21.18,0,0,1-15.91-6.65A22.39,22.39,0,0,1,661.5,675V602.33H531.35q-8.55,0-15.44-6.65A21.07,21.07,0,0,1,509,580a23.92,23.92,0,0,1,5.22-15.2L665.78,374.33a22.79,22.79,0,0,1,8.31-6.65,23.53,23.53,0,0,1,10.21-2.37A21.23,21.23,0,0,1,700.21,372a22.42,22.42,0,0,1,6.41,16.15V561H731.8A21.11,21.11,0,0,1,747,566.94ZM568.88,561H661.5V442.25Z" transform="translate(-58.48 -11.32)"/><path class="b" d="M500,148.12a388.14,388.14,0,1,1-151.6,30.59A387,387,0,0,1,500,148.12m0-52c-243.84,0-441.52,197.67-441.52,441.52S256.16,979.15,500,979.15,941.52,781.48,941.52,537.63,743.84,96.12,500,96.12h0Z" transform="translate(-58.48 -11.32)"/><line class="c" x1="441.02" y1="111.68" x2="441.02" y2="43.68"/><rect class="b" x="369.97" width="142.1" height="68"/></svg>