<svg id="Vector_Graphics" data-name="Vector Graphics" xmlns="http://www.w3.org/2000/svg" viewBox="0 0 411.37 114.97"><defs><style>.cls-1{fill:#fff;}</style></defs><title>logo</title><path d="M291.8,192.06c0.73,0.44,12.88,7,14.49,7.47,3.37-.73,11-1.61,13.18-1s13.18,4.68,16.1,4.25,19.91-2.2,29.13-1.32,21.08,2.93,21.67,2.78,4.69,0,4.69,0l2.93,0.87s14.79,2.34,16,2.34,17.57,1.17,18.59,2.2,0.63,3.17.63,3.17l2.88,2.39-0.88,2.2-3.37,1.46,1.68,2-4.1,2s-14.49-.07-16.54-0.37-10.54-1-11.56-2S389,214,387.26,214s-27.82,5-30.6,5.42S344.22,218,342.46,218s-14.35-.58-16.84.59-12.88,1.76-19.76-.15-14.15-6-21-3.07-15.22,9.37-17.76,10.35-19.32,2.54-22.64,4.1-13.47,2.73-18.15,2.54-14.25-3.9-19.72-1.56-12.3,6.05-20.69,7.61-18.15.59-22.45,0c-5.08,2-18.54.91-24.6,0.84s-20.69-5.33-27.91-5.33S100,231.54,100,231.54s-4.68-3.71-6.25-3.71-17-5.47-19.81-6.05S61.81,215.63,53,216.51s-14-2.63-14.49-2.93S25,212.31,22.72,212.12s-2.54-1.76-1.37-2.34,10.15-4.29,12.1-5.37,8.49-3.32,9.86-5.17a12,12,0,0,1,5-3.71c2.88-1.27,7.37,8,16,10,3.42,0.81,25.62-1.32,31.55,1.54,3.73-2.41,16.69-1.24,18.3-1.54a109.7,109.7,0,0,1,15.08-2.93c12.44-9.15,23.13-10.1,25.91-11.42s9.2-10,9.2-10,18.25-.88,22.16-1,19.81,6.64,21.67,6S229,170.1,229,170.1c-2-1.46-9.52-5.12-11.56-6.73s-7-9.22-11.57-7.91-16.69-.59-20.2-1.17-8.93-.15-9.66.88-2.64,6.89-2.64,6.89-8.44,8.48-12.64,9.26c-2.54,0-2.15-2.83-2.15-2.83L152,173.37l-3.51-.88-2.24.88-0.88-3.12,1.27-2.83h-2.15l2.54-6s5.17-7.32,9.37-8.78,9.78-3.15,11.32-3.61c1-.31,9.17-3.81,13.66-5.56s20.2-1.56,25.57-2.15c11.91,1.85,22.45,10.05,25.38,12.49,0,0,4.1-.49,13.66,2.64s9.87,12.09,12.2,15.32c1.51,2.1,7.08,5.61,9.27,4.88s5.71-3.22,6.15-4.1a62.1,62.1,0,0,1,3.37-6c0.73-.88,2.78-1.61,4.39-2.49s2.2,0.44,2.93.15A30.66,30.66,0,0,1,295.61,161c5.71-.29,13.32,6.59,13.76,10.25s-4.83,14.79-7.17,16S291.8,192.06,291.8,192.06Z" transform="translate(-20.68 -141.35)"/><path class="cls-1" d="M183.9,201.13a56.54,56.54,0,0,0-12.18,1.24,21.2,21.2,0,0,0-5.86,2.27,12.41,12.41,0,0,0-4.52,4.55l0.81-.44c-5.94-.29-11.9-0.48-17.87-0.25a55.2,55.2,0,0,0-8.94,1c-1.5.33-2.89,0.82-4.32,1.21l-4.28,1.19c-2.86.76-5.74,1.49-8.64,2a12.73,12.73,0,0,1-2.15.29,11.82,11.82,0,0,1-2.15-.25,38,38,0,0,1-4.26-1.16c-5.62-1.86-11.06-4.28-16.54-6.56,5.42,2.42,10.79,5,16.4,7a38.71,38.71,0,0,0,4.29,1.28,12.56,12.56,0,0,0,2.25.32,13.45,13.45,0,0,0,2.27-.24c2.95-.48,5.85-1.14,8.74-1.83l4.33-1.09c1.44-.36,2.88-0.82,4.28-1.09a54.21,54.21,0,0,1,8.76-.73c5.9-.09,11.82.25,17.72,0.68l0.53,0,0.28-.47a10.58,10.58,0,0,1,4-3.78,19.24,19.24,0,0,1,5.36-1.92,40.8,40.8,0,0,1,5.81-.76c2-.12,3.93-0.15,5.93-0.13v-2.34Z" transform="translate(-20.68 -141.35)"/><path class="cls-1" d="M271,211.06a19.57,19.57,0,0,1,8.72-.19,46,46,0,0,1,8.69,2.57,138.9,138.9,0,0,1,16.5,8.14,139.29,139.29,0,0,0-16-9.21,47.37,47.37,0,0,0-8.79-3.22,21.65,21.65,0,0,0-9.58-.38Z" transform="translate(-20.68 -141.35)"/><path d="M90.8,228.51c-3.37,0-18.74,4.25-21.52,5.71s-8.05,7.76-9.81,9.08-5.27,2.93-7.47,4.24-8.2,7.17-10,7.76a35.8,35.8,0,0,1-4.69,1l-0.73-1.76,0.73-2.34-1.76-.73s1.76-5.86,2.34-7.17,2-6.88,2.49-7.17,6.15-2.93,7.76-4.69,3.66-7.76,4.25-7.91,8.93,0.88,17.27-2.63C78.94,225.29,90.8,228.51,90.8,228.51Z" transform="translate(-20.68 -141.35)"/></svg>