<svg id="Ebene_1" data-name="Ebene 1" xmlns="http://www.w3.org/2000/svg" viewBox="0 0 505.84 191.29"><defs><style>.cls-1{fill:#080811;}.cls-2{fill:#fefefe;}.cls-3{fill:#e30613;}</style></defs><title>logo</title><path class="cls-1" d="M624.71,325a52.83,52.83,0,0,0-14.7-2.41c-4.42,0-8.77-.86-13.23-0.79a160.58,160.58,0,0,0-35.69,4.4c-9.42,2.28-19,3.82-28.38,6.39a292.54,292.54,0,0,0-38.41,13.74c-1.36.59-2.47,1.08-2.75,2.85a37.3,37.3,0,0,1-9.86,19.55c-9.09,9.92-21,15.37-33,20.89a112.22,112.22,0,0,1-18.55,6.25c-12.48,3.31-25.32,4.55-34.52-6.3-8.74-10.32-10.9-21.32-4.09-33.28a7,7,0,0,1,2.76-2.7,133.73,133.73,0,0,1,21.87-10.2c10.19-3.45,20.12-7.71,30.76-9.67,12.49-2.31,24.87-3,36.7,3a4.66,4.66,0,0,0,5-.28c9-5.26,19-8.08,28.89-11.37,11.86-4,23.91-7.56,36.19-9.3,10.15-1.43,20.33-3.35,30.74-3.37,8,0,15.91-1.13,23.91-1.35,11-.3,21.43,2.42,31.89,5.2,6.24,1.65,12.2,3.78,17.43,7.76,2.43,1.85,4.92.41,7.23-.72,4.89-2.4,8.73-6.42,13.64-8.83a83.28,83.28,0,0,1,31.5-8.59c7.52-.51,15.24-1.38,21.08,3.35,6.06,4.9,12.68,2.75,18.95,3.81a52.86,52.86,0,0,1,17.07,6,41.68,41.68,0,0,0,10.12,4.18,68.53,68.53,0,0,1,23.86,12c4.31,3.24,9.1,5.86,13.31,9.21a10,10,0,0,0,9.11,1.69c3.63-.91,6.52.06,9.47,1.68,6.53,3.58,12.33,8.23,18.34,12.56a59.18,59.18,0,0,0,9.58,5.18,3.06,3.06,0,0,0,2.07.29c7.48-2.66,12.48,1.84,17.24,6.24,3.32,3.07,6.49,6.24,10.66,8.12,2,0.89,2.87,2.35,2.19,4.23s-1.46,3.28-4.05,3.8a38.39,38.39,0,0,1-22.29-1.89c-7.79-3.24-16.05-2.08-23.72-4.71-6.19-2.12-12.38-4.23-18.66-6a114.46,114.46,0,0,1-11.85-4.06c-2.46-1-4.83-2.36-6.13-4.64-1.2-2.1-2.61-2.59-4.88-2.63a70,70,0,0,1-22.25-3.72c-2.15-.76-3.07-0.59-4.06,1.47-4.06,8.41-11.35,11.57-20.19,12.47a44.77,44.77,0,0,1-15.13-.86,30.94,30.94,0,0,1-11-5.11c-1.61-1.19-2.46-1.27-3.84-.26-7.08,5.18-15.18,6.4-23.56,5.35-9.12-1.15-17.61-4.54-25.62-9a3.83,3.83,0,0,0-3.52-.56c-11.1,3.42-22.3,6.49-33.94,7.47-2,.17-3.53,1.42-4.94,2.52-6.36,4.95-13.9,6.43-21.53,7.53-5.44.78-10.55,1.69-15,5.6-4.58,4.06-10.81,5.49-16,8.76-10.82,6.84-22.48,12.23-33.11,19.44-3.94,2.67-8.85,3.55-13.45,4.89-7.62,2.24-15.31,3.94-23.33,2.79a1.05,1.05,0,0,0-1.19.31c-3.9,5.39-9.85,7-15.82,8.43a76.25,76.25,0,0,0-20.91,9,87.37,87.37,0,0,1-16.36,7.11,30.23,30.23,0,0,0-12.17,8.28c-4.09,4.34-8.22,9-13.51,11.57-4.06,2-5.92,4.45-6.84,8.54-1.7,7.48-7.93,11.38-13.36,15.74a19.61,19.61,0,0,1-8.55,4.44c-5.88,1.07-9-.82-9.6-7.33A31.6,31.6,0,0,1,394,478.61c1.17-4.82,1.51-9.87,5.12-13.92,2.14-2.41,1.53-6.11,3-9,3.9-7.87,9.79-12.76,18.83-13.33,4.79-.3,9.26-2.1,13.82-3.4,2.21-.63,3.51-2.74,4.86-4.59,6.27-8.67,12.77-17.15,20.67-24.43A36.62,36.62,0,0,1,476,401a127.33,127.33,0,0,0,13.15-4.71c7-2.65,14.21-2.16,21.36-.52,1.28,0.29,2.35.59,3.19-.56,5.34-7.4,12.09-13.53,18.33-20.09,9.29-9.77,17.17-20.83,27-30,9.2-8.65,20-15.34,32.35-18.4,4.57-1.13,9.75-2.17,14.75-.45a13.94,13.94,0,0,0,8.66.18C617.95,325.45,621.39,325.41,624.71,325Zm185.11,39c3.16,3.11,7.2,4.6,11.25,6.08,11.9,4.36,24.66,5,36.75,8.59,3.89-2.1,5.69.69,8.55,2.74,4,2.87,9.39,3.17,14.37,3.75a22.72,22.72,0,0,0,5-.13A2.34,2.34,0,0,0,887.4,384c0.37-.8-0.51-1.2-1.07-1.58a74.81,74.81,0,0,1-12.47-10.5c-1.47-1.56-3.11-3.38-4.87-.16a1.56,1.56,0,0,1-2,.48c-3.79-1.43-7.84-2-11.44-4.13-8.35-5-15.34-11.93-24.06-16.39-2.56-1.31-4.92-2.13-8.17-1.15,2.08,0.38,3,1.81,2.15,3.07-1,1.51-2.65.41-4.06-.24-5.88-2.72-10.94-6.64-16.21-10.32-4.27-3-9.72-4.2-13.52-8-4.12-4.13-9.38-5.45-14.76-6.73-2.26-.54-4.9-0.33-6.72-1.84-8-6.68-17.5-9-27.51-9.55-6.1-.32-12,1.34-17.86,3.17-1.23.39-2.87,1-3.43-.27s0.81-2.23,1.91-3.07c1.92-1.47,4.29-2,6.5-3.19a9.66,9.66,0,0,0-3.53-1.84c-8-2.68-16.13-1.54-24-.33-13.93,2.15-26,9.33-37.78,16.64,13.31,8.31,27.72,14.12,42.21,19.77,5.29,2.07,11.11,1.1,16.26,2.47,5.66,1.51,9.47,0,13.53-3.08a7.32,7.32,0,0,1,1.79-1.06c1.09-.4,2.11-1.84,3.39-0.53s-0.47,2.27-.85,3.46a57.47,57.47,0,0,0,13.29,1.5,55.75,55.75,0,0,1,17.25,2.92c12.54,4,25,9,38.57,5.14a2.34,2.34,0,0,1,2.6,1.34,2.07,2.07,0,0,1-.91,2.79A4.86,4.86,0,0,0,809.83,364ZM584.6,389.52c-3.68-4.2-7.71-7.17-11.44-10.48-5.89-5.23-13.24-8.22-19.41-13.06-4.48-3.51-4.76-3.16-8.94.61-0.33.29-.5,0.76-0.81,1.06-8.72,8.5-15.44,18.82-24.64,26.87a4.43,4.43,0,0,0-1.91,4c0.23,2.4-1.15,2.36-3.1,2.07-4.27-.64-8.27-2.62-12.72-2.39-6.38.34-12.26,2.59-18.33,4.28a54.81,54.81,0,0,0-24.42,14.47c-5.17,5.18-8.92,11.55-13.25,17.41-7.18,9.72-15.4,16.59-28.34,15.78-4.15-.26-7.23,2.06-9.65,5.59s-2.4,8.25-4.62,11.91c-3.66,6.06-4.24,12.82-4.94,19.59-0.37,3.59,2.15,5.58,5.23,3.61,10-6.41,18.88-13.85,19.67-27.06,0.07-1.16-.07-2.51,1.49-2.91a2.23,2.23,0,0,1,2.61,1.45c0.71,1.64,1.29,1.62,2.47.43,10-10.07,21.78-17.72,34.34-24.23,10.85-5.63,22-10.33,34-13.06,2.8-.64,6-1.5,7.35-4.63,1.15-2.69,3.28-3.18,5.45-2.19a15,15,0,0,0,11,.22c8.14-2.68,16.58-4.69,24.27-8.61,6.52-3.33,12.86-7,19.31-10.46S578,393,584.6,389.52Zm-192.37-20c-0.42,6.22,2,11.68,5.7,16.89a17.57,17.57,0,0,0,9.91,6.9c5.82,1.77,11.5,0,16.85-1.2,15-3.43,28.65-10.6,42.08-18a42.4,42.4,0,0,0,4.5-2.75c6.48-4.7,11.22-10.88,15.19-17.7,2.72-4.67,1.9-11-1.89-12.12-7.66-2.34-14.93-5.92-23.58-4.73-10.55,1.46-21.18,2.23-31.19,6.16-8.64,3.39-17.7,5.67-26,10.09C397.21,356.61,391.84,360.8,392.23,369.51Zm236.65,1a13,13,0,0,0-.85-1.7c-7.56-10.71-13.43-22.19-16.25-35.09-0.2-.92-0.53-2.31-1.31-2.31-4,0-7.77-2.2-11.92-1.46a61,61,0,0,0-19.12,7c-8.79,4.9-18,9.32-24,17.9-3.87,5.56-5.32,4.27,1.53,8.23,10.64,6.15,21.41,12.11,30.68,20.22,2.95,2.58,4.91,2,7.43.14,3.23-2.37,6.52-4.88,10.59-5.34,7-.79,13.38-3.73,20.16-5.2C627.21,372.65,628.65,372.17,628.89,370.53Zm-12.73-38.07c0.23,0.63.5,1.26,0.7,1.92a111,111,0,0,0,15.08,32.1c1.05,1.52,1.62,2.24,3.78,1.6a80.93,80.93,0,0,1,13.66-2.92c7.36-.85,14.46-2.1,20.88-6.2a7.17,7.17,0,0,1,7.37-.32C686,363,695.17,365.19,704,368.3c6.9,2.43,11.64,1.06,14.9-3.92a18.28,18.28,0,0,1-9.32-2c-8.27-4-17-6.72-25.53-10.19a165,165,0,0,1-28.69-14.95c-3.56-2.35-6.75-5.5-11-6.71-7.17-2.06-14.36.36-21.55,0.34C620.76,330.89,618.15,330.78,616.16,332.45ZM759.4,369.75c5.55-1.36,9.75-4.1,12.73-8.93,1.29-2.09.37-2.54-1-2.75-5.55-.86-10.93-2.94-16.7-2.38a20.09,20.09,0,0,1-5.36-.15c-6-1.05-12.28-3.48-15.8,4.37a1.65,1.65,0,0,1-.49.52c-2.06,1.69-2,3.35,0,5,4.72,3.93,10.43,4.79,16.27,5.44,3.37,0.38,5.18-.78,6.19-4,0.31-1,0-3,1.83-2.91s1.78,2.13,2.27,3.44A7.38,7.38,0,0,1,759.4,369.75Z" transform="translate(-387.55 -305.44)"/><path class="cls-2" d="M809.83,364a4.86,4.86,0,0,1,1.85-1.26,2.07,2.07,0,0,0,.91-2.79,2.34,2.34,0,0,0-2.6-1.34c-13.61,3.83-26-1.13-38.57-5.14a55.75,55.75,0,0,0-17.25-2.92,57.47,57.47,0,0,1-13.29-1.5c0.38-1.2,2.28-2,.85-3.46s-2.3.14-3.39,0.53a7.32,7.32,0,0,0-1.79,1.06c-4.05,3-7.87,4.59-13.53,3.08-5.15-1.38-11-.41-16.26-2.47-14.49-5.65-28.9-11.46-42.21-19.77,11.81-7.31,23.85-14.49,37.78-16.64,7.82-1.21,16-2.35,24,.33a9.66,9.66,0,0,1,3.53,1.84c-2.2,1.17-4.57,1.71-6.5,3.19-1.1.84-2.44,1.89-1.91,3.07s2.2,0.66,3.43.27c5.82-1.84,11.76-3.49,17.86-3.17,10,0.53,19.52,2.87,27.51,9.55,1.82,1.52,4.46,1.31,6.72,1.84,5.38,1.28,10.64,2.6,14.76,6.73,3.8,3.81,9.25,5,13.52,8,5.27,3.68,10.34,7.6,16.21,10.32,1.41,0.65,3,1.75,4.06.24,0.87-1.26-.08-2.69-2.15-3.07,3.25-1,5.61-.16,8.17,1.15,8.72,4.46,15.71,11.41,24.06,16.39,3.6,2.15,7.65,2.7,11.44,4.13a1.56,1.56,0,0,0,2-.48c1.76-3.22,3.4-1.39,4.87.16a74.81,74.81,0,0,0,12.47,10.5c0.57,0.38,1.45.79,1.07,1.58a2.34,2.34,0,0,1-1.64,1.06,22.72,22.72,0,0,1-5,.13c-5-.58-10.38-0.88-14.37-3.75-2.86-2.06-4.65-4.84-8.55-2.74-12.09-3.56-24.85-4.22-36.75-8.59C817,368.63,813,367.15,809.83,364Z" transform="translate(-387.55 -305.44)"/><path class="cls-2" d="M584.6,389.52c-6.61,3.51-13,6.85-19.3,10.26s-12.79,7.13-19.31,10.46c-7.69,3.92-16.13,5.93-24.27,8.61a15,15,0,0,1-11-.22c-2.16-1-4.29-.5-5.45,2.19-1.34,3.13-4.54,4-7.35,4.63-12,2.74-23.16,7.43-34,13.06-12.56,6.51-24.3,14.16-34.34,24.23-1.18,1.19-1.76,1.21-2.47-.43a2.23,2.23,0,0,0-2.61-1.45c-1.56.4-1.42,1.75-1.49,2.91-0.79,13.21-9.64,20.65-19.67,27.06-3.08,2-5.61,0-5.23-3.61,0.7-6.77,1.28-13.53,4.94-19.59,2.21-3.67,2.1-8.24,4.62-11.91s5.5-5.85,9.65-5.59c12.94,0.8,21.15-6.07,28.34-15.78,4.33-5.85,8.08-12.23,13.25-17.41a54.81,54.81,0,0,1,24.42-14.47c6.06-1.69,11.95-3.94,18.33-4.28,4.45-.23,8.45,1.75,12.72,2.39,2,0.29,3.33.33,3.1-2.07a4.43,4.43,0,0,1,1.91-4c9.2-8,15.93-18.37,24.64-26.87,0.32-.31.49-0.77,0.81-1.06,4.18-3.77,4.46-4.12,8.94-.61,6.17,4.84,13.52,7.84,19.41,13.06C576.89,382.35,580.93,385.33,584.6,389.52Z" transform="translate(-387.55 -305.44)"/><path class="cls-3" d="M392.23,369.51c-0.39-8.71,5-12.9,11.59-16.44,8.27-4.42,17.33-6.7,26-10.09,10-3.92,20.64-4.7,31.19-6.16,8.65-1.2,15.92,2.38,23.58,4.73,3.79,1.16,4.61,7.46,1.89,12.12-4,6.82-8.71,13-15.19,17.7a42.4,42.4,0,0,1-4.5,2.75c-13.43,7.38-27.06,14.54-42.08,18-5.35,1.22-11,3-16.85,1.2a17.57,17.57,0,0,1-9.91-6.9C394.27,381.18,391.81,375.73,392.23,369.51Zm77-10.53c-1.64.44-3.41,0.46-5.15,1-9.14,3-16.7,8.62-24.46,14-2.73,1.9-4,4.1-2.78,7.14,0.9,2.34,5.07,3,8.1,1.48,3.79-1.93,7.61-3.83,11.22-6.06,5.41-3.34,11.27-6,16-10.47,1.31-1.24,2.77-2.4,1.88-4.54S471.21,359.35,469.28,359Zm-14-19.83c-7.19,0-21,4.13-28.24,8.16a11.09,11.09,0,0,0-4.92,5c-1.07,2.28-.34,4.05,2.1,4.68a21.06,21.06,0,0,0,6.3.84c8-.47,15.4-3.15,22.37-7a18.83,18.83,0,0,0,5.22-3.68,7.07,7.07,0,0,0,1.61-7C459,338.05,456.57,339.6,455.26,339.15Zm-40,45c0.29-1.32-.4-2.6-1-3.89-2.61-5.54-6.83-9.89-10.82-14.4-1.38-1.56-3.19-2.66-5.16-1.53a5.39,5.39,0,0,0-2.34,5.81c1.46,8.06,5.47,14.38,13.17,17.95C412.2,389.55,415.19,387.78,415.25,384.18Z" transform="translate(-387.55 -305.44)"/><path class="cls-3" d="M628.89,370.53c-0.23,1.64-1.68,2.12-3,2.41-6.79,1.47-13.18,4.41-20.16,5.2-4.07.46-7.36,3-10.59,5.34-2.52,1.85-4.49,2.44-7.43-.14-9.28-8.11-20-14.08-30.68-20.22-6.85-4-5.4-2.66-1.53-8.23,6-8.58,15.17-13,24-17.9a61,61,0,0,1,19.12-7c4.15-.74,7.88,1.49,11.92,1.46,0.79,0,1.11,1.39,1.31,2.31,2.82,12.9,8.69,24.38,16.25,35.09A13,13,0,0,1,628.89,370.53Z" transform="translate(-387.55 -305.44)"/><path class="cls-2" d="M616.16,332.45c2-1.68,4.6-1.56,6.69-1.56,7.19,0,14.39-2.39,21.55-.34,4.21,1.21,7.41,4.36,11,6.71a165,165,0,0,0,28.69,14.95c8.48,3.47,17.26,6.18,25.53,10.19a18.28,18.28,0,0,0,9.32,2c-3.26,5-8,6.35-14.9,3.92-8.84-3.11-18-5.32-26.39-9.68a7.17,7.17,0,0,0-7.37.32c-6.42,4.1-13.52,5.35-20.88,6.2a80.93,80.93,0,0,0-13.66,2.92c-2.15.64-2.72-.08-3.78-1.6a111,111,0,0,1-15.08-32.1C616.66,333.71,616.38,333.08,616.16,332.45Z" transform="translate(-387.55 -305.44)"/><path class="cls-2" d="M759.4,369.75a7.38,7.38,0,0,0,0-2.3c-0.49-1.31-.37-3.31-2.27-3.44s-1.52,1.92-1.83,2.91c-1,3.2-2.83,4.36-6.19,4-5.85-.66-11.55-1.51-16.27-5.44-2-1.67-2.09-3.33,0-5a1.65,1.65,0,0,0,.49-0.52c3.51-7.85,9.8-5.42,15.8-4.37a20.09,20.09,0,0,0,5.36.15c5.77-.56,11.15,1.52,16.7,2.38,1.4,0.22,2.32.66,1,2.75C769.14,365.65,764.95,368.38,759.4,369.75Z" transform="translate(-387.55 -305.44)"/><path class="cls-1" d="M455.26,339.15c1.31,0.45,3.76-1.1,4.44,1a7.07,7.07,0,0,1-1.61,7,18.83,18.83,0,0,1-5.22,3.68c-7,3.86-14.35,6.54-22.37,7a21.06,21.06,0,0,1-6.3-.84c-2.44-.62-3.18-2.4-2.1-4.68a11.09,11.09,0,0,1,4.92-5C434.27,343.28,448.07,339.18,455.26,339.15Zm0.25,3.3c-9.34,1.68-18.29,3.26-26.43,7.72a12.68,12.68,0,0,0-2,1.33c-0.52.43-1.33,0.94-.88,1.74s1,0.74,2,.73A51.87,51.87,0,0,0,439.8,352C445.8,350.55,452.16,349.41,455.52,342.45Z" transform="translate(-387.55 -305.44)"/><path class="cls-1" d="M415.25,384.18c-0.06,3.6-3,5.37-6.15,3.93-7.7-3.57-11.71-9.89-13.17-17.95a5.39,5.39,0,0,1,2.34-5.81c2-1.12,3.78,0,5.16,1.53,4,4.51,8.2,8.86,10.82,14.4C414.85,381.57,415.54,382.86,415.25,384.18Zm-4.77-1.08c-0.44-1-.81-1.82-1.19-2.66A43.6,43.6,0,0,0,402.17,370c-0.58-.67-1.45-1.76-2.64-1.11s-0.47,1.54-.17,2.45a25.92,25.92,0,0,0,2.4,5.31,19.51,19.51,0,0,0,7.07,6.83C409.5,383.87,410.16,384.14,410.47,383.1Z" transform="translate(-387.55 -305.44)"/><path class="cls-1" d="M469.28,359c1.92,0.37,3.9.47,4.78,2.58s-0.57,3.31-1.88,4.54c-4.7,4.44-10.55,7.12-16,10.47-3.61,2.23-7.44,4.12-11.22,6.06-3,1.54-7.19.86-8.1-1.48-1.18-3,0-5.25,2.78-7.14,7.76-5.38,15.32-11,24.46-14C465.88,359.44,467.64,359.43,469.28,359Zm0.41,4.37c-6.62-.23-26.48,11.29-28.24,16.64C451.89,375.6,460.29,368.69,469.69,363.35Z" transform="translate(-387.55 -305.44)"/><path class="cls-2" d="M469.69,363.35c-9.39,5.34-17.79,12.25-28.24,16.64C443.21,374.64,463.07,363.12,469.69,363.35Z" transform="translate(-387.55 -305.44)"/><path class="cls-2" d="M455.52,342.45c-3.36,7-9.72,8.09-15.71,9.58A51.87,51.87,0,0,1,428.21,354c-1,0-1.64,0-2-.73s0.36-1.3.88-1.74a12.68,12.68,0,0,1,2-1.33C437.22,345.71,446.17,344.14,455.52,342.45Z" transform="translate(-387.55 -305.44)"/><path class="cls-2" d="M410.47,383.1c-0.31,1-1,.77-1.64.39a19.51,19.51,0,0,1-7.07-6.83,25.92,25.92,0,0,1-2.4-5.31c-0.29-.91-1-1.81.17-2.45s2.06,0.45,2.64,1.11a43.6,43.6,0,0,1,7.12,10.43C409.67,381.28,410,382.12,410.47,383.1Z" transform="translate(-387.55 -305.44)"/></svg>