<?xml version="1.0" standalone="no"?>
<!DOCTYPE svg PUBLIC "-//W3C//DTD SVG 20010904//EN"
 "http://www.w3.org/TR/2001/REC-SVG-20010904/DTD/svg10.dtd">
<svg version="1.0" xmlns="http://www.w3.org/2000/svg"
 width="1000.000000pt" height="1000.000000pt" viewBox="0 0 1000.000000 1000.000000"
 preserveAspectRatio="xMidYMid meet">
<metadata>
Created by potrace 1.11, written by Peter Selinger 2001-2013
</metadata>
<g transform="translate(0.000000,1000.000000) scale(0.100000,-0.100000)"
fill="#000000" stroke="none">
<path d="M1787 6924 c-1 -1 -36 -4 -77 -8 -93 -8 -157 -20 -284 -52 -618 -159
-1105 -668 -1271 -1329 -18 -71 -36 -152 -39 -180 -4 -27 -9 -68 -12 -90 -3
-22 -7 -58 -9 -80 -6 -52 -6 -334 -1 -361 2 -11 7 -52 10 -90 28 -317 185
-711 390 -974 76 -99 127 -153 227 -244 103 -94 294 -223 393 -266 23 -9 61
-27 86 -38 52 -25 217 -80 263 -87 17 -3 33 -7 36 -9 3 -2 26 -7 51 -10 25 -3
56 -8 70 -11 86 -18 297 -23 450 -12 533 39 1023 335 1330 802 130 199 256
520 285 730 3 22 8 47 10 55 25 96 26 496 1 655 -131 834 -731 1463 -1506
1579 -100 15 -392 29 -403 20z m363 -673 c123 -32 208 -67 305 -129 184 -117
322 -274 421 -477 79 -164 111 -275 139 -485 17 -134 -2 -394 -40 -546 -13
-51 -23 -79 -61 -179 -4 -11 -8 -22 -9 -25 -4 -17 -79 -154 -109 -200 -148
-226 -401 -406 -656 -465 -101 -24 -328 -28 -435 -9 -331 60 -606 273 -766
593 -77 155 -120 301 -145 496 -13 100 -6 360 11 425 2 8 6 33 10 55 15 102
67 256 127 373 132 258 343 451 593 541 183 66 428 79 615 32z"/>
<path d="M8427 6924 c-1 -1 -34 -4 -72 -8 -180 -16 -337 -56 -494 -124 -418
-182 -655 -530 -655 -962 0 -233 57 -434 168 -595 22 -31 165 -178 203 -207
101 -78 320 -183 443 -214 8 -2 49 -12 90 -24 41 -11 167 -36 280 -56 300 -51
441 -90 585 -161 204 -100 298 -240 291 -433 -8 -210 -229 -381 -561 -435 -76
-13 -352 -14 -371 -3 -5 3 -31 9 -59 12 -188 25 -419 138 -625 306 -126 103
-300 94 -411 -22 -128 -132 -121 -323 17 -464 180 -185 447 -331 726 -398 225
-53 500 -73 725 -53 364 34 695 179 910 399 149 152 230 299 274 498 20 93 24
349 7 438 -65 338 -207 526 -517 681 -158 80 -523 185 -752 217 -65 9 -272 59
-354 86 -133 43 -263 110 -319 165 -127 123 -153 335 -61 484 57 92 179 176
310 214 62 18 67 19 175 34 121 18 304 5 434 -30 23 -6 48 -12 56 -14 90 -19
374 -151 466 -216 93 -68 104 -73 174 -75 82 -3 152 22 208 75 80 76 112 154
106 256 -7 118 -90 228 -257 339 -229 151 -516 250 -822 282 -60 6 -312 13
-318 8z"/>
<path d="M4575 6861 c-107 -27 -198 -115 -229 -222 -15 -50 -16 -207 -14
-1665 l3 -1609 30 -59 c36 -72 99 -129 174 -157 56 -21 62 -21 986 -21 841 1
935 2 980 17 172 58 254 224 199 403 -14 44 -30 69 -75 113 -99 98 -51 93
-891 94 -399 0 -729 3 -732 6 -3 3 -6 646 -7 1430 0 1419 0 1424 -21 1479 -27
70 -109 152 -180 178 -54 20 -168 27 -223 13z"/>
</g>
</svg>
