<svg id="Ebene_1" data-name="Ebene 1" xmlns="http://www.w3.org/2000/svg" viewBox="0 0 205.24 83.31"><defs><style>.cls-1{fill:#e30613;}</style></defs><title>LzO-Logo_meineSparkasse_Rot_cmyk</title><polyline class="cls-1" points="79.64 51.65 79.64 45.92 66.69 45.92 66.69 17.21 59.64 17.21 59.64 51.65 79.64 51.65"/><path class="cls-1" d="M108.53,79.41V74.06H95q4-4.86,6.49-7.7,1.57-1.77,6.61-7v-5.2H87.67v5.35H99.5q-0.85.92-2.61,2.9t-3.07,3.53L91.7,68.45q-1.27,1.5-2.53,3.1t-2,2.66v5.2h21.37" transform="translate(-4.52 -27.76)"/><path class="cls-1" d="M133.49,62.2a26.54,26.54,0,0,1-.71,6.19A8.9,8.9,0,0,1,130.3,73a6.24,6.24,0,0,1-4.41,1.65,6.58,6.58,0,0,1-3.09-.72,6.43,6.43,0,0,1-2.38-2.25,12,12,0,0,1-1.55-3.87,24.81,24.81,0,0,1-.55-5.59,25.28,25.28,0,0,1,.55-5.64,11.86,11.86,0,0,1,1.55-3.88,6.45,6.45,0,0,1,2.38-2.24,6.58,6.58,0,0,1,3.09-.72,6.65,6.65,0,0,1,3.1.72,6.43,6.43,0,0,1,2.4,2.24,11.88,11.88,0,0,1,1.55,3.88,25.34,25.34,0,0,1,.55,5.64m7.18,0a25.15,25.15,0,0,0-1-7.45,16.3,16.3,0,0,0-2.94-5.62,12.69,12.69,0,0,0-4.64-3.54,16.11,16.11,0,0,0-12.34,0,12.68,12.68,0,0,0-4.64,3.54,16.13,16.13,0,0,0-2.92,5.62,25.39,25.39,0,0,0-1,7.45,25.35,25.35,0,0,0,1,7.47,16,16,0,0,0,2.92,5.6,12.74,12.74,0,0,0,4.64,3.53,16.11,16.11,0,0,0,12.34,0,12.74,12.74,0,0,0,4.64-3.53,16.17,16.17,0,0,0,2.94-5.6A25.11,25.11,0,0,0,140.66,62.2Z" transform="translate(-4.52 -27.76)"/><path class="cls-1" d="M5,75.39a6.67,6.67,0,0,0,3.53,3.53,6.46,6.46,0,0,0,2.57.51H37.69a6.59,6.59,0,0,0,2.59-.51,6.45,6.45,0,0,0,2.11-1.42,6.81,6.81,0,0,0,1.4-2.11,6.45,6.45,0,0,0,.51-2.57V58.22H13.77v-4H44.3V51.61A6.45,6.45,0,0,0,43.78,49a6.8,6.8,0,0,0-1.4-2.11,6.43,6.43,0,0,0-2.11-1.42A6.57,6.57,0,0,0,37.69,45H11.13a6.44,6.44,0,0,0-2.57.51A6.67,6.67,0,0,0,5,49a6.46,6.46,0,0,0-.51,2.57V66.2H35v4H4.52v2.64A6.47,6.47,0,0,0,5,75.39M18.28,36.94A7,7,0,0,0,19.7,39a6.41,6.41,0,0,0,2.11,1.42,6.57,6.57,0,0,0,2.59.51A6.45,6.45,0,0,0,27,40.47a6.67,6.67,0,0,0,3.53-3.53,6.68,6.68,0,0,0,0-5.14A6.66,6.66,0,0,0,27,28.27a6.45,6.45,0,0,0-2.57-.51,6.57,6.57,0,0,0-2.59.51A6.42,6.42,0,0,0,19.7,29.7a7.07,7.07,0,0,0-1.42,2.11A6.48,6.48,0,0,0,18.28,36.94Z" transform="translate(-4.52 -27.76)"/><path class="cls-1" d="M203.93,98.94a2,2,0,0,1,1.72-.81,1.82,1.82,0,0,1,1.57.68,3.2,3.2,0,0,1,.5,1.93v0.46h-4.48a4.19,4.19,0,0,1,.68-2.26m3.83,8.25a8.06,8.06,0,0,0,1.37-.29l-0.38-1.48a8.64,8.64,0,0,1-1.11.23,9,9,0,0,1-1.3.09,2.81,2.81,0,0,1-2.19-.81,3.81,3.81,0,0,1-.86-2.34h6.43q0-.51,0-1.18a5.28,5.28,0,0,0-1-3.49,3.74,3.74,0,0,0-3-1.22,4.55,4.55,0,0,0-1.92.38,3.83,3.83,0,0,0-1.4,1.09,4.86,4.86,0,0,0-.86,1.68,7.51,7.51,0,0,0-.29,2.16,6.93,6.93,0,0,0,.32,2.18,4.59,4.59,0,0,0,.94,1.66,4.11,4.11,0,0,0,1.51,1.06,5.31,5.31,0,0,0,2,.37A14,14,0,0,0,207.76,107.19ZM196.88,107a3.75,3.75,0,0,0,1.29-.56,2.6,2.6,0,0,0,.83-1,2.94,2.94,0,0,0,.29-1.34,3,3,0,0,0-.28-1.3,2.3,2.3,0,0,0-.94-1,8.58,8.58,0,0,0-1.83-.76l-1-.33a4.54,4.54,0,0,1-.76-0.33,1.54,1.54,0,0,1-.48-0.4,0.87,0.87,0,0,1-.17-0.54,1.05,1.05,0,0,1,.48-0.94,2.76,2.76,0,0,1,1.48-.31,9.19,9.19,0,0,1,1.55.12,8.84,8.84,0,0,1,1.34.34v-1.6a10.21,10.21,0,0,0-1.29-.28,11,11,0,0,0-1.72-.12,5.61,5.61,0,0,0-1.53.19,3.48,3.48,0,0,0-1.18.56,2.52,2.52,0,0,0-.75.92,2.88,2.88,0,0,0-.27,1.27,2.62,2.62,0,0,0,.21,1.12,2.22,2.22,0,0,0,.6.78,3.67,3.67,0,0,0,.91.54c0.35,0.15.73,0.29,1.13,0.43l1.13,0.38a3.23,3.23,0,0,1,1,.51,1,1,0,0,1,.4.84,1.49,1.49,0,0,1-.16.65,1.18,1.18,0,0,1-.68.53,4,4,0,0,1-1.4.2,7.58,7.58,0,0,1-1.09-.08,6.58,6.58,0,0,1-.95-0.2q-0.41-.12-0.92-0.33l-0.52,1.46c0.14,0.06.31,0.14,0.53,0.21a7.88,7.88,0,0,0,.78.22,10.18,10.18,0,0,0,1,.18,10,10,0,0,0,1.25.07A7.07,7.07,0,0,0,196.88,107Zm-9.15,0a3.75,3.75,0,0,0,1.29-.56,2.6,2.6,0,0,0,.83-1,2.92,2.92,0,0,0,.29-1.34,3,3,0,0,0-.28-1.3,2.3,2.3,0,0,0-.94-1,8.56,8.56,0,0,0-1.84-.76l-1-.33a4.49,4.49,0,0,1-.76-0.33,1.53,1.53,0,0,1-.48-0.4,0.87,0.87,0,0,1-.17-0.54,1.05,1.05,0,0,1,.48-0.94,2.76,2.76,0,0,1,1.48-.31,9.18,9.18,0,0,1,1.55.12,8.84,8.84,0,0,1,1.34.34v-1.6a10.21,10.21,0,0,0-1.28-.28,11,11,0,0,0-1.72-.12,5.62,5.62,0,0,0-1.53.19,3.49,3.49,0,0,0-1.18.56,2.51,2.51,0,0,0-.75.92,2.87,2.87,0,0,0-.27,1.27,2.62,2.62,0,0,0,.21,1.12,2.23,2.23,0,0,0,.6.78,3.64,3.64,0,0,0,.9.54c0.35,0.15.72,0.29,1.13,0.43l1.13,0.38a3.25,3.25,0,0,1,1,.51,1,1,0,0,1,.4.84,1.49,1.49,0,0,1-.16.65,1.17,1.17,0,0,1-.68.53,4,4,0,0,1-1.4.2,7.59,7.59,0,0,1-1.09-.08,6.61,6.61,0,0,1-.95-0.2c-0.27-.08-0.58-0.19-0.91-0.33l-0.52,1.46c0.14,0.06.32,0.14,0.54,0.21a7.77,7.77,0,0,0,.78.22,10.23,10.23,0,0,0,1,.18,10,10,0,0,0,1.25.07A7.08,7.08,0,0,0,187.72,107Zm-12.65-1.47a1.15,1.15,0,0,1-.61-0.57,2,2,0,0,1-.21-0.9,2,2,0,0,1,.21-1,1.58,1.58,0,0,1,.62-0.63,3,3,0,0,1,1-.35,9.21,9.21,0,0,1,1.47-.1h0.72v2.74a2.91,2.91,0,0,1-1.3.77,3.42,3.42,0,0,1-1,.17A2.37,2.37,0,0,1,175.07,105.58Zm1.47,1.51a4.43,4.43,0,0,0,1.05-.38,3.06,3.06,0,0,0,.75-0.53l0,0.86h1.83V100.1a4.46,4.46,0,0,0-.23-1.51,2.42,2.42,0,0,0-.71-1,3,3,0,0,0-1.21-.6,6.83,6.83,0,0,0-1.74-.19q-0.51,0-1.08.05c-0.38,0-.7.08-0.94,0.12s-0.64.14-1.19,0.28v1.58a13.12,13.12,0,0,1,1.32-.39,6.44,6.44,0,0,1,1.51-.17,4.8,4.8,0,0,1,1.23.15,1.41,1.41,0,0,1,.85.57,2.09,2.09,0,0,1,.28,1.17v0.54h-1a12.67,12.67,0,0,0-1.6.13,6,6,0,0,0-1.29.33,3.35,3.35,0,0,0-1.55,1.15,3.21,3.21,0,0,0-.53,1.89,3.57,3.57,0,0,0,.25,1.41,2.56,2.56,0,0,0,.67.94,2.61,2.61,0,0,0,1,.53,4.3,4.3,0,0,0,1.2.17A4.88,4.88,0,0,0,176.55,107.09ZM165,107v-5q0.59,0.59,1.3,1.37t1.46,1.75q0.75,1,1.37,1.84h2.42q-0.5-.76-1.06-1.54T169.37,104q-0.6-.75-1.23-1.43a16.87,16.87,0,0,0-1.26-1.23L171.13,97H168.8l-3.77,3.9V92.39H163.1V107H165Zm-7.2,0v-5.46a3,3,0,0,1,.18-1,2.81,2.81,0,0,1,.53-0.92,2.85,2.85,0,0,1,.9-0.69,2.8,2.8,0,0,1,1.26-.27,3.06,3.06,0,0,1,.69.06V97a3.71,3.71,0,0,0-.76-0.06,3.11,3.11,0,0,0-1,.18,2.83,2.83,0,0,0-1,.64,3.94,3.94,0,0,0-.83,1.15l0-1.91H155.9V107h1.94Zm-10.09-1.46a1.15,1.15,0,0,1-.61-0.57,2,2,0,0,1-.21-0.9,2,2,0,0,1,.21-1,1.58,1.58,0,0,1,.62-0.63,3,3,0,0,1,1-.35,9.22,9.22,0,0,1,1.47-.1H151v2.74a2.91,2.91,0,0,1-1.3.77,3.41,3.41,0,0,1-1,.17A2.37,2.37,0,0,1,147.74,105.58Zm1.48,1.51a4.43,4.43,0,0,0,1.05-.38,3.06,3.06,0,0,0,.74-0.53l0,0.86h1.83V100.1a4.44,4.44,0,0,0-.23-1.51,2.42,2.42,0,0,0-.71-1,3,3,0,0,0-1.21-.6,6.83,6.83,0,0,0-1.74-.19q-0.51,0-1.08.05c-0.38,0-.7.08-0.94,0.12s-0.64.14-1.19,0.28v1.58a13.12,13.12,0,0,1,1.32-.39,6.44,6.44,0,0,1,1.51-.17,4.8,4.8,0,0,1,1.23.15,1.41,1.41,0,0,1,.85.57,2.1,2.1,0,0,1,.28,1.17v0.54h-1a12.67,12.67,0,0,0-1.6.13,6,6,0,0,0-1.29.33,3.35,3.35,0,0,0-1.55,1.15,3.21,3.21,0,0,0-.53,1.89,3.57,3.57,0,0,0,.25,1.41,2.56,2.56,0,0,0,.67.94,2.61,2.61,0,0,0,1,.53,4.3,4.3,0,0,0,1.2.17A4.88,4.88,0,0,0,149.22,107.09Zm-12.07-1.68a3.49,3.49,0,0,1-1-.69v-2.59a6.67,6.67,0,0,1,.16-1.51,3.88,3.88,0,0,1,.47-1.19,2.33,2.33,0,0,1,.77-0.77,2,2,0,0,1,1-.28,2.36,2.36,0,0,1,1.23.34,2.09,2.09,0,0,1,.86,1.16,6.08,6.08,0,0,1,.29,2,7.85,7.85,0,0,1-.07,1.06,5.69,5.69,0,0,1-.2.94,3.56,3.56,0,0,1-.38.81,1.92,1.92,0,0,1-.78.68,2.66,2.66,0,0,1-1.23.27A2.7,2.7,0,0,1,137.15,105.41Zm-1,5.66v-4.64a3.47,3.47,0,0,0,1.07.59,4.47,4.47,0,0,0,1.48.22,4.57,4.57,0,0,0,1.86-.36,3.58,3.58,0,0,0,1.36-1,4.71,4.71,0,0,0,.83-1.69,8.42,8.42,0,0,0,.28-2.28,9,9,0,0,0-.34-2.44,3.66,3.66,0,0,0-1.26-1.94,3.63,3.63,0,0,0-2.33-.73,4.13,4.13,0,0,0-1.21.18,3.11,3.11,0,0,0-1.81,1.49l0-1.47h-1.85v14.11h1.94Zm-7.13-4a4.41,4.41,0,0,0,1.55-.77,3.35,3.35,0,0,0,1-1.26,4.15,4.15,0,0,0,.34-1.71,3.85,3.85,0,0,0-.32-1.67,3.46,3.46,0,0,0-.85-1.13,4.88,4.88,0,0,0-1.23-.77q-0.7-.31-1.46-0.59l-1.26-.47a5.6,5.6,0,0,1-1-.49,2.12,2.12,0,0,1-.65-0.62,1.54,1.54,0,0,1-.23-0.86,1.79,1.79,0,0,1,.72-1.54,3.37,3.37,0,0,1,2-.53,9.38,9.38,0,0,1,1.19.08,10.62,10.62,0,0,1,1.18.22,9.74,9.74,0,0,1,1.07.33V93.46l-0.68-.18a9.49,9.49,0,0,0-1.19-.23,11.15,11.15,0,0,0-1.56-.1,6.79,6.79,0,0,0-2,.27,4.35,4.35,0,0,0-1.49.76,3.35,3.35,0,0,0-.94,1.21,3.71,3.71,0,0,0-.33,1.59,4.47,4.47,0,0,0,.12,1,2.73,2.73,0,0,0,.48,1,3.6,3.6,0,0,0,.9.85,6.48,6.48,0,0,0,1.05.58q0.52,0.22,1.1.43l1.37,0.53a4,4,0,0,1,1.29.8,1.73,1.73,0,0,1,.54,1.32,3,3,0,0,1-.19,1,1.71,1.71,0,0,1-.9.9,4.37,4.37,0,0,1-2,.36,8.41,8.41,0,0,1-1.34-.12,9,9,0,0,1-1.35-.32,6.66,6.66,0,0,1-.91-0.35l-0.56,1.61,0.59,0.25a8.19,8.19,0,0,0,1,.29,12.72,12.72,0,0,0,1.28.24,11.26,11.26,0,0,0,1.58.1A7.56,7.56,0,0,0,129.05,107Zm-18.61-8.08a2,2,0,0,1,1.72-.81,1.82,1.82,0,0,1,1.57.68,3.21,3.21,0,0,1,.5,1.93v0.46h-4.48A4.2,4.2,0,0,1,110.45,98.94Zm3.83,8.25a8.1,8.1,0,0,0,1.37-.29l-0.38-1.48a8.64,8.64,0,0,1-1.11.23,9,9,0,0,1-1.3.09,2.81,2.81,0,0,1-2.19-.81,3.81,3.81,0,0,1-.86-2.34h6.43q0-.51,0-1.18a5.28,5.28,0,0,0-1-3.49,3.74,3.74,0,0,0-3-1.22,4.56,4.56,0,0,0-1.92.38,3.81,3.81,0,0,0-1.4,1.09,4.86,4.86,0,0,0-.86,1.68,7.5,7.5,0,0,0-.29,2.16,6.93,6.93,0,0,0,.32,2.18,4.58,4.58,0,0,0,.94,1.66,4.11,4.11,0,0,0,1.51,1.06,5.31,5.31,0,0,0,2,.37A14,14,0,0,0,114.28,107.19ZM98.8,107v-5.86A3.37,3.37,0,0,1,99,100a2.47,2.47,0,0,1,.88-1.1,2.32,2.32,0,0,1,1.41-.47,1.86,1.86,0,0,1,1.45.53,2.43,2.43,0,0,1,.48,1.67V107h1.94v-7a4.41,4.41,0,0,0-.28-1.53,2.55,2.55,0,0,0-1-1.26,3.49,3.49,0,0,0-1.95-.5,3.87,3.87,0,0,0-1.91.45,3.45,3.45,0,0,0-1.26,1.17l0-1.41H96.86V107H98.8ZM93,94.86a1.16,1.16,0,0,0,.5-0.41,1.11,1.11,0,0,0,.23-0.68,1.23,1.23,0,0,0-.15-0.54,1.24,1.24,0,0,0-1.11-.67,1.4,1.4,0,0,0-.56.13,1.19,1.19,0,0,0-.5.42,1.13,1.13,0,0,0-.21.67,1.07,1.07,0,0,0,.1.47,1.29,1.29,0,0,0,.68.64,1.31,1.31,0,0,0,.49.09A1.46,1.46,0,0,0,93,94.86ZM93.65,107V97H90.4v1.28q0.42,0,1.31.16V107h1.94Zm-10.48-8.1a2,2,0,0,1,1.72-.81,1.82,1.82,0,0,1,1.57.68,3.21,3.21,0,0,1,.5,1.93v0.46H82.49A4.19,4.19,0,0,1,83.17,98.94ZM87,107.19a8.09,8.09,0,0,0,1.37-.29L88,105.42a8.64,8.64,0,0,1-1.11.23,9,9,0,0,1-1.31.09,2.81,2.81,0,0,1-2.19-.81,3.81,3.81,0,0,1-.86-2.34H89q0-.51,0-1.18a5.28,5.28,0,0,0-1-3.49,3.74,3.74,0,0,0-3-1.22,4.55,4.55,0,0,0-1.92.38,3.82,3.82,0,0,0-1.4,1.09,4.86,4.86,0,0,0-.86,1.68,7.5,7.5,0,0,0-.29,2.16,6.93,6.93,0,0,0,.32,2.18,4.59,4.59,0,0,0,.94,1.66,4.11,4.11,0,0,0,1.51,1.06,5.31,5.31,0,0,0,2,.37A14,14,0,0,0,87,107.19ZM66.07,107v-5.92a3.26,3.26,0,0,1,.17-1.06,2.75,2.75,0,0,1,.48-0.87,2.22,2.22,0,0,1,.73-0.58,2,2,0,0,1,.92-0.21,1.55,1.55,0,0,1,1.3.5A2.57,2.57,0,0,1,70,100.5V107H72v-5.92a3.16,3.16,0,0,1,.17-1.06,2.75,2.75,0,0,1,.49-0.87,2.26,2.26,0,0,1,.73-0.58,2,2,0,0,1,.92-0.21,1.55,1.55,0,0,1,1.3.5,2.57,2.57,0,0,1,.4,1.59V107h1.94v-7.1a3.3,3.3,0,0,0-.79-2.35,3,3,0,0,0-2.28-.84,3.62,3.62,0,0,0-1.84.44,4.06,4.06,0,0,0-1.32,1.23,2.37,2.37,0,0,0-1-1.24,3.31,3.31,0,0,0-1.75-.43,3.4,3.4,0,0,0-1.75.42A3.51,3.51,0,0,0,66,98.29L66,97H64.13V107h1.94Z" transform="translate(-4.52 -27.76)"/></svg>