<svg xmlns="http://www.w3.org/2000/svg" viewBox="0 0 1197.98 1042"><defs><style>.a{fill:#fff;}.b{fill:#49c6e5;}</style></defs><title>logo_favicon</title><circle class="a" cx="666.98" cy="550.63" r="441.52"/><path class="b" d="M-149,367c88-73.84,190.61-128.11,306-130,157.19-2.57,197.87,94.38,360,86,157.87-8.15,185.32-103.48,332-90,91.79,8.43,118,64,179.18,75.78L1031,1029l-1106-2,4-620S-216.81,480.62-149,367Z" transform="translate(166.98 13)"/><path class="a" d="M460.47,691.78q9.53,9.54,9.54,23.84a30.66,30.66,0,0,1-9.54,22.95q-9.54,9.25-23.84,9.24H234q-15.51,0-24.44-9.54t-8.94-24.44q0-14.89,10.73-26.22L341.27,548.74q22-23.83,34.87-48t12.81-44.4q0-26.82-19.07-46.49t-44.1-19.67q-17.29,0-34.87,11.62T259,432.52q-10.73,14.3-27.42,14.3-13.12,0-24.14-10.13t-11-22.65q0-8.94,6-18.18t17.88-21.16a179.77,179.77,0,0,1,52.45-36.36q29.79-13.7,57.22-13.71,39.34,0,69.14,16.69A116,116,0,0,1,445,387.22q16.09,29.21,16.09,66.16,0,36.36-19.37,74.8t-52.15,73.61l-75.69,80.46H436.63Q450.93,682.24,460.47,691.78Z" transform="translate(166.98 13)"/><path class="a" d="M796.79,578.54q9.53,9.54,9.54,23.84a30.66,30.66,0,0,1-9.54,22.95q-9.54,9.25-23.84,9.24h-25v76.88q0,15.51-10.43,25.93T711.56,747.8a33.49,33.49,0,0,1-25-10.43Q676.39,727,676.4,711.45V634.56h-155q-13.12,0-24.44-10.43T485.68,599.4a36.35,36.35,0,0,1,8.94-23.84L683,344.91q11.31-14.3,29.8-14.3a33.55,33.55,0,0,1,25,10.43q10.13,10.43,10.13,25.93V569h25Q787.25,569,796.79,578.54ZM579.85,569H676.4V449.8Z" transform="translate(166.98 13)"/><path class="a" d="M499.5,146.12a390.14,390.14,0,1,1-152.38,30.75A389,389,0,0,1,499.5,146.12m0-50C255.66,96.12,58,293.79,58,537.63S255.66,979.15,499.5,979.15,941,781.48,941,537.63,743.34,96.12,499.5,96.12h0Z" transform="translate(166.98 13)"/><rect class="a" x="580.72" width="171.52" height="92.32"/><rect class="a" x="633.54" y="58.88" width="66.88" height="66.88"/></svg>