<svg id="Ebene_1" data-name="Ebene 1" xmlns="http://www.w3.org/2000/svg" viewBox="0 0 386.19 212.11"><defs><style>.cls-1{fill:#1a1a18;}.cls-1,.cls-2,.cls-3,.cls-4,.cls-5,.cls-6,.cls-7{fill-rule:evenodd;}.cls-2{fill:#fff;}.cls-3{fill:#2c51a0;}.cls-4{fill:#f4f5f7;}.cls-5{fill:#e2000f;}.cls-6{fill:#03030a;}.cls-7{fill:#fc0000;}</style></defs><title>neues_logo</title><path class="cls-1" d="M195.79,496.22c-1.4.35-1,2.45-.52,3.21-1.62.31-1.68,1.68-1.22,3-1.49.28-1.79,2.12-1.62,2.86a1.81,1.81,0,0,0-1.68,2.21c-1.95.46-1.95,1.49-1.88,2.71-1.95.15-1.73,1.09-2.32,2.34-1.53-.5-2.51,1.42-2.58,2.21-2.49.09-2.12,1.46-2.45,2.12a1.71,1.71,0,0,0-2.27,1.27c-0.85.07-1.88,0.2-2.19,1.18-1.68-.11-2.25.18-2.8,1.38a1.52,1.52,0,0,0-2.32.66c-0.24-.66-1.92-0.5-2.6.48a2,2,0,0,0-2.73-.44c-0.35.35-1.18-.79-1.31-1.18a72.8,72.8,0,0,0,9-4,51.19,51.19,0,0,0,9.64-7.61,44.1,44.1,0,0,0,10.45-19.26c0.39-.13,1.2.39,0.79,0.79a2,2,0,0,0,.72,3c-1.46.11-1,2.32-.07,3m-32-57.06c-0.26-.7,1.22-0.72,1.75-1.22,0.52,0.9,2.65,1,3.45.22,0.42,0.79,1.14,1.64,2.86.92,0.2,1,1.38,1.55,3,.92-0.31,1.22,1.75,1.9,3,1.44,0,0.31,0,2.1,2.47,1.81-0.59.94,1.42,2.08,2.58,1.73-0.31,1,.09,2.4,2.19,2.12,0,0.85.28,2.69,2.19,2.45-0.37.94,0.46,2.6,2.69,2.8a1.66,1.66,0,0,0,1.55,2.32,1.83,1.83,0,0,0,1.42,2.69,2,2,0,0,0,1,2.82c-0.37.28-.09,2.25,0.92,2.6-1,.83-0.2,2.91.68,3a2,2,0,0,0,0,3.06c-0.87-.13-1.14,1.09-1.2.92-1-2.54-1.77-5.29-3-7.76C186.13,451.06,175.41,441.92,163.78,439.17Zm-1.22-.42a1.39,1.39,0,0,1-.68,0,0.78,0.78,0,0,1,0-.5,0.57,0.57,0,0,1,.68.07A0.31,0.31,0,0,1,162.56,438.75Zm-16.07,83.07a3.8,3.8,0,0,0-1.11-.26,2.47,2.47,0,0,0-2.12,1.29c-0.28-1-2-.55-2.65.24,0.15-.72-1.95-1.73-3.1-0.31-0.24-.94-1-1.53-3-0.7-0.11-1.38-1.64-1.55-3.19-.88,0.31-1.7-1.86-2.21-2.8-1.68,0.37-2.19-2.25-2.6-3.17-2.1,0.31-.9-0.44-2.12-2.93-1.79,0.87-1.42-1.46-2.51-2.45-2.3a1.75,1.75,0,0,0-2.19-2.23c1.36-1.79-1.38-2.6-2.08-2.73a2.17,2.17,0,0,0-2.08-2.8c0.35-1.22.26-2.12-1.36-2.21,1.09-.68-0.5-2.43-1.11-2.4,0.59-1.09.57-2.67-1-3.1a1.85,1.85,0,0,0-.59-2.86c1.25-.37.31-2-0.18-2.45,0.87,0,1.2-2.75.2-3.3a5.29,5.29,0,0,1,1.68-1.18c2.43,12.85,12.61,25.27,24.81,30.3a48.18,48.18,0,0,0,9.27,2.93c0.68,0.15.85,0.2,1.18,0.24ZM111,486.45l0,0.2a0.32,0.32,0,0,1-.44-0.2,1.06,1.06,0,0,1,0-.39C110.73,485.88,111.05,486.1,111,486.45ZM109.15,464c1.16,0.07,1.27-2,.57-3.26,1.75,0.18,2.27-1.27,1.62-2.86,2.05-.22,2.56-1.81,2.14-3.41,1.16,0,1.88-.94,1.4-2.65,1.4,0.83,3-1.14,2.62-2.14,1.33,0.59,2.91-1.29,2.62-2.8a1.89,1.89,0,0,0,2.27-2.05c0.81,0.55,2.49-.2,2.84-1.49a2.36,2.36,0,0,0,3.08-1.95,2.38,2.38,0,0,0,3.24-1.4c0.74,0.94,3-.2,3.23-1a1.83,1.83,0,0,0,2.86-.46,2,2,0,0,0,3,0c-0.18.55,0.79,0.79,1.18,0.83-0.33.09-.74,0.18-0.74,0.18-13.31,3.67-24.94,15-28.66,28.22-0.18.61-.48,1.46-1.12,4a1.33,1.33,0,0,0-1.22-.57c0.33-1,.92-3-1.09-3.91C110.2,465.58,109.61,464.46,109.15,464Zm90,30.43c1.2-.28,1-3.3-0.33-3.87,0.9,0,.63-2.67-0.9-3.5,0.85-.57.87-2.71,0-3.17a2.72,2.72,0,0,0-.61-3.87c0.68-1.22,1-2-.06-3.52,0.55-.52,1.14-2.16.42-3.1,1.18-.72,2.25-2.69.61-3.76,1.44-.63,1-2.51.57-3,1.16-1.73.63-2.71-.17-3.37,0.52-.52.66-2.75-0.9-3.15,0.85-1-.39-2.86-1.11-3.26,0.13-1.25,0-2.51-1.57-3.1,0.2-1.49-.68-2.51-2.25-2.89a2.35,2.35,0,0,0-2.43-2.49,2.49,2.49,0,0,0-2.27-3.24c0.39-.79-0.81-2.27-2.32-2.16-0.33-1.6-.87-1.68-2.54-1.64,0.66-1.29-1.77-2.69-3-2.23-0.11-1.38-1.9-1.68-3-1.62a2.2,2.2,0,0,0-2.86-1.44,2.41,2.41,0,0,0-3.48-.87c-0.26-1-1.75-1.64-3.48-.44-0.24-1.31-2.93-1-4.24.46-1.18-1.16-1.86-.87-3.56.11-0.52-1.27-3.8-.57-4.77,1-1-1.16-3.43-.31-3.69.52-0.44-1.27-2.19-1.25-3.08-.26-0.28-1.29-1.42-1.81-2.8-1,0-1.16-2.19-1.6-3.17-.72-0.46-1.29-2.93-.74-3.65.18-0.07-1.25-2.73-.72-3.06.28-0.59-1.68-3.54-.18-3.72.92-0.94-1.25-2.89-.83-3.78,1.51-0.33-.87-3-0.22-3.15,1.46-1.4-.22-2.86.28-3.08,2-1.16-1-3.32.68-2.89,2.23-1.86-.66-3.5.61-3,2.51-2.49-.2-3.19,1.42-2.78,2.89-2.36.13-2.32,1.66-2.08,3-1.18.09-2.82,0.37-1.95,3.08-2.49,0-2.69,2.45-2.43,3.87-1.42.63-1.38,1.7-1,3.37-1.14.26-2,2.32-.15,4.18-0.79.87-.66,3.19,1,4.48-1.36,1,.13,3,1.09,3.52a1.9,1.9,0,0,0,.15,2.86,1.49,1.49,0,0,0-.07,2.27c-0.46.63-1.29,0.85-.66,2.6a1.78,1.78,0,0,0-.55,3c-1.18.33-1.36,1.92-.68,3-1.36.7-.94,2.56,0,3.48-1.81.79-.52,2.65,0.09,3-1.18.46-1.25,2.47,0.37,3.3-0.85.63-.55,2.71,0.94,3.17-0.83,1.36-.15,2.23,1.16,2.8a1.81,1.81,0,0,0,1.79,2.69c-0.26,1.38.09,2.08,2.05,2.86a2.15,2.15,0,0,0,2.32,2.58,2.55,2.55,0,0,0,2,2.91c-0.13,1.79.66,2.82,2.71,2.58-0.11,1.2,1,2.47,3,1.77-0.77,2.21,2.34,3.15,3.54,2.47-0.63,2.43,2.8,2.36,3.59,2.08,0,1.92,2,1.66,3.61,1.33,0.57,1.29,1.7,1.09,2.78.44,0.24,2.19,2.69,1.66,3.69.46,0.33,1.2,2.4.9,2.84,0.07,0.79,1,2.78.33,3.28-.2a2,2,0,0,0,3.08-.77c1,0.66,3.26-.2,3.78-0.81a2.55,2.55,0,0,0,3-.46c0.92,1,2.89.57,3.26,0.26,0.52,1.22,2.93.37,3,.35a2.75,2.75,0,0,0,3.35.55c0.42,1.4,2.62,1.53,3.43.26,0,0.59,1.79,1,2.82-.46a2,2,0,0,0,3.21-1c1.29,0.79,1.92.26,2.51-.85,1.2,1,2.47-.37,2.67-1.25,1.27,0.74,2.47-.09,2.67-1.64a2.22,2.22,0,0,0,2.89-2.3,1.66,1.66,0,0,0,2.4-1.71c2.25,0.5,2.84-1.81,2.49-3.26,1.95,0.72,2.45-1.64,2.1-2.71,2.23,0.15,2.36-1.51,2.08-2.34,1.6,0.24,2.47-1.81,1.44-3.37,1.73,0.35,2.65-2.12,1.64-3.26,1.55-.24,1.9-2.3,1.07-3.41C200.12,498.24,200.77,495.66,199.2,494.39Z" transform="translate(-104.54 -314.89)"/><path class="cls-2" d="M141.59,435.32a3.85,3.85,0,0,1-2.1,3c-0.48.13-1.14,0.09-1.16-.39a3.19,3.19,0,0,1,1.55-3c0.59-.2,1.79-0.31,1.7.46" transform="translate(-104.54 -314.89)"/><path class="cls-2" d="M166.54,435.12a3,3,0,0,1-1.18,2.16c-0.66.48-1.9,1.09-2.34,0.39-0.44-1.12,1-2.16,2.34-2.89,0.5-.18,1.18-0.07,1.18.33" transform="translate(-104.54 -314.89)"/><path class="cls-2" d="M170.25,435.65c0.2,0.68-1,1.51-1.7,2a1.72,1.72,0,0,1-1.88,0c-0.33-.59.2-1.16,0.59-1.64,0.77-.59,2.4-1.88,3-0.39" transform="translate(-104.54 -314.89)"/><path class="cls-2" d="M138,435.38a3.45,3.45,0,0,1-1.31,3c-0.37.2-1.25,0.31-1.31-.07-0.07-1.11,0-2.49,1-3.08,0.46-.2,1.57-0.44,1.64.13" transform="translate(-104.54 -314.89)"/><path class="cls-2" d="M144.59,435.65c-0.13,1.31-1.16,2-2.14,2.69-0.35.24-1.25,0.07-1.25-.26,0-.85.72-1.51,1-2.16a0.77,0.77,0,0,1,.59-0.66c0.7-.2,1.88-0.26,1.81.39" transform="translate(-104.54 -314.89)"/><path class="cls-2" d="M162.43,435.65c0.24,0.92-.33,1.07-0.66,1.64a1.79,1.79,0,0,1-1.57.79c-0.33-.07-0.85,0-0.72-0.59a3,3,0,0,1,2.3-2.23,0.57,0.57,0,0,1,.66.39" transform="translate(-104.54 -314.89)"/><path class="cls-2" d="M134.93,436.76a6.57,6.57,0,0,1-.44,1.31,2.14,2.14,0,0,1-1.84,1.22c-0.26,0-.83-0.11-0.79-0.5,0.07-1.42.33-2.89,1.84-3.41a1.61,1.61,0,0,1,1.22.13,1.27,1.27,0,0,1,0,1.25" transform="translate(-104.54 -314.89)"/><path class="cls-2" d="M159.15,436.11a3.53,3.53,0,0,1-2.4,2.43c-0.46.07-1.09,0.33-1.25-.13a2.88,2.88,0,0,1,1.57-2.69c0.52-.31,2.27-0.39,2.08.39" transform="translate(-104.54 -314.89)"/><path class="cls-2" d="M173.51,436.11c0.28,0.52-.13.66-0.13,0.66-0.9.46-1.75,2.36-3.19,1.64-0.33-.2-0.61-0.7-0.33-0.92,1.12-.79,1.38-2.3,3-1.9a0.89,0.89,0,0,1,.66.52" transform="translate(-104.54 -314.89)"/><path class="cls-2" d="M147.47,436.56c0.39,1.12-.52,1.57-1.18,2.1-0.24.17-2.23,0.5-2.16,0,0.13-1,.9-2.34,1.84-2.56a1.51,1.51,0,0,1,1.51.46" transform="translate(-104.54 -314.89)"/><path class="cls-2" d="M131.36,436.76a4.75,4.75,0,0,1-.48,3.06,1.94,1.94,0,0,1-1.55.79,0.77,0.77,0,0,1-.85-0.72,3,3,0,0,1,1.55-3.32c0.39-.07,1.22-0.18,1.33.2" transform="translate(-104.54 -314.89)"/><path class="cls-2" d="M154.58,437.48c0.2,0.85-.68,1.2-1.29,1.38a3.83,3.83,0,0,1-1.51-.2c-0.44-.2-0.22-0.9.07-1.31a3.17,3.17,0,0,1,1.57-.85,1,1,0,0,1,1.16,1" transform="translate(-104.54 -314.89)"/><path class="cls-2" d="M150.53,436.89a1.57,1.57,0,0,1,.26,1.18,1.16,1.16,0,0,1-1,.85c-0.59.07-1.49,0.31-1.88-.26a1.85,1.85,0,0,1,.59-1.51,1.65,1.65,0,0,1,2.08-.26" transform="translate(-104.54 -314.89)"/><path class="cls-2" d="M176.4,437.35c0.07,1.31-1.49,1.66-2.3,2.14-0.46.22-1.55-.07-1.49-0.7a3.09,3.09,0,0,1,2.14-2.1,1.32,1.32,0,0,1,1.64.66" transform="translate(-104.54 -314.89)"/><path class="cls-2" d="M127.82,438.66c0.13,1.22.2,3.19-1.31,3.78a0.76,0.76,0,0,1-1-.79c0-1.31-.13-2.93,1-3.59a1,1,0,0,1,1.31.59" transform="translate(-104.54 -314.89)"/><path class="cls-2" d="M179.52,439.23c0.09,0.48-.74.94-1.25,1.25a2.65,2.65,0,0,1-2,.33,0.8,0.8,0,0,1-.66-0.92,2.27,2.27,0,0,1,1.82-1.49c0.85-.07,1.84,0,2.1.83" transform="translate(-104.54 -314.89)"/><path class="cls-2" d="M154.32,440.24c-0.22,1.57-2,1-3.06,1.29a0.87,0.87,0,0,1-.59-1.18,2.84,2.84,0,0,1,2.89-.79,0.94,0.94,0,0,1,.77.68" transform="translate(-104.54 -314.89)"/><path class="cls-2" d="M124.83,440.35a3.47,3.47,0,0,1-.39,2.89c-0.46.39-1.29,1-1.57,0.66a3.36,3.36,0,0,1,.13-3.54c0.46-.33,1.57-0.72,1.84,0" transform="translate(-104.54 -314.89)"/><path class="cls-2" d="M182.58,440.67c0.48,1.16-1.18,1.42-2.14,1.9-0.59.07-1.38,0.26-1.77-.72a1.18,1.18,0,0,1,.33-1.12c0.92-.79,2.82-1.25,3.59-0.07" transform="translate(-104.54 -314.89)"/><path class="cls-3" d="M150.58,441.94c-0.72.83-1,1.51-.24,2.23a1.88,1.88,0,0,0,.18,2.71,2,2,0,0,0,.33,2,1.16,1.16,0,0,0-.76,1.4c-5.18.42-8.83,1.42-15.19,5.86-6.54,5.33-9,10.08-10.21,13.64a42.18,42.18,0,0,0-1.55,7.48c-0.68-.09-1.75.28-1.84,1-1.36-1.57-2.84-.48-2.93,0-0.63-.79-1.9-1.38-2.73-0.46a2.1,2.1,0,0,0-2.56-.63,36.94,36.94,0,0,1,7.7-21.1,42.93,42.93,0,0,1,12.09-10.78,36,36,0,0,1,3.19-1.68,43,43,0,0,1,13.45-3.41,1.41,1.41,0,0,0,1.09,1.73" transform="translate(-104.54 -314.89)"/><path class="cls-2" d="M121.87,443.5a3.61,3.61,0,0,1-.33,1.88c-0.33.52-1.25,1-1.49,0.22-0.33-1-.85-2-0.33-3.15a1.43,1.43,0,0,1,1.29-.79c1-.09.81,1.12,0.85,1.84" transform="translate(-104.54 -314.89)"/><path class="cls-2" d="M154.32,442.38c0.26,1.22-1,1-1.81,1.18a2.24,2.24,0,0,1-1.51.07,0.73,0.73,0,0,1-.13-0.92,4.37,4.37,0,0,1,3.13-.79s0.28,0,.33.46" transform="translate(-104.54 -314.89)"/><path class="cls-3" d="M173.77,445.57a41.55,41.55,0,0,1,13.14,12.79,41.19,41.19,0,0,1,3,5.62c0.33,0.7.44,1,.61,1.38a35.14,35.14,0,0,1,2.4,11.3,0.88,0.88,0,0,0-1.16.77c-0.52-.46-1.75-0.63-2.1.2-0.46-.52-2.75-1.53-3.39,0a2.07,2.07,0,0,0-2.51,0,0.67,0.67,0,0,0-1-.33c-1.75-13.73-10.17-23-22.89-26.34a21.22,21.22,0,0,0-4.2-.7c-0.13-.85.11-1.29-0.9-1.81a1.77,1.77,0,0,0-.13-2.51c0.52-.5.92-1.77,0.22-2.25a1.57,1.57,0,0,0-.39-2.21c0.87-.42,1-0.9.87-1.33,7,0.07,13.51,2.89,18.41,5.49" transform="translate(-104.54 -314.89)"/><path class="cls-2" d="M184.75,442.45c0.52,1.12-.79,1.25-1.38,1.55a2,2,0,0,1-1.75,0c-0.28-.15-0.79-0.63-0.52-0.83,0.85-.59,2.1-1.46,3.19-1a1.38,1.38,0,0,1,.46.26" transform="translate(-104.54 -314.89)"/><path class="cls-2" d="M154.45,444.26c-0.11,1.62-2,1.49-3.06,1.9a0.63,0.63,0,0,1-.72-0.33,0.89,0.89,0,0,1,.33-1.11,6.79,6.79,0,0,1,3.19-.77,0.38,0.38,0,0,1,.26.31" transform="translate(-104.54 -314.89)"/><path class="cls-2" d="M187.28,444.33c0.42,0.55.48,1-.2,1.38a4.68,4.68,0,0,1-2.93.66,1.12,1.12,0,0,1-.46-1.57c0.79-1,2.67-1.36,3.59-.46" transform="translate(-104.54 -314.89)"/><path class="cls-2" d="M119.21,445c0.18,1,.39,2.36-0.33,3.15-0.39.35-1.16,0.76-1.44,0.11-0.46-1.31-1.57-2.54-.52-4a1.37,1.37,0,0,1,2.3.72" transform="translate(-104.54 -314.89)"/><path class="cls-2" d="M189.45,446.88a1.25,1.25,0,0,1,.13,1.31c-0.92.5-2.1,1-3.13,0.46-0.59-.39-0.87-1.6-0.39-1.77,1-.37,1.81-1.57,2.8-0.79" transform="translate(-104.54 -314.89)"/><path class="cls-2" d="M154.58,446.95a1.06,1.06,0,0,1-1,1.18c-0.87.09-2.05,0.83-2.3-.33a1.18,1.18,0,0,1,.92-1.25c0.66-.22,2.14-0.66,2.4.39" transform="translate(-104.54 -314.89)"/><path class="cls-2" d="M116.78,448.83a2,2,0,0,1-.2,1.64c-0.39.66-1.46,1-1.75,0.52-0.66-1-1.44-2.08-.85-3.32a2,2,0,0,1,1.25-1.12c1.36-.07,1.27,1.51,1.55,2.27" transform="translate(-104.54 -314.89)"/><path class="cls-2" d="M154.71,449.35c0.26,0.48-.44,1.2-1,1.31-0.76.15-1.81,0.52-2.47,0a0.8,0.8,0,0,1-.07-1c1-.52,2.73-1.55,3.52-0.26" transform="translate(-104.54 -314.89)"/><path class="cls-2" d="M191.55,449.42a1.78,1.78,0,0,1,.5,1.44c0,0.39-1.42.79-2.27,0.72a1.73,1.73,0,0,1-1.57-1.12,1,1,0,0,1,.66-1.25,3.27,3.27,0,0,1,2.69.2" transform="translate(-104.54 -314.89)"/><path class="cls-2" d="M113.65,450.27c0.39,0.92,1,1.77.59,2.89a0.77,0.77,0,0,1-.52.57c-0.92.07-1.36-.7-1.84-1.36a2.77,2.77,0,0,1-.07-2,0.94,0.94,0,0,1,1.84-.13" transform="translate(-104.54 -314.89)"/><path class="cls-2" d="M194.08,452.44c0.39,1-.26,1.55-1.18,1.62a3.57,3.57,0,0,1-1.88-.33,1.47,1.47,0,0,1-.26-1.55c0.37-.46,2.54-0.79,3.32.26" transform="translate(-104.54 -314.89)"/><path class="cls-2" d="M178.08,468.09a21.56,21.56,0,0,1,1.84,5.07l0.09,0.37a32,32,0,0,1,0,12.72,49.82,49.82,0,0,1-2.23,5.92,27.93,27.93,0,0,1-49.93-.52c-4.63-8.74-2.86-21.34,3.32-28.84,6.8-8.7,17.88-12.29,28.86-9.6a27.78,27.78,0,0,1,18,14.87" transform="translate(-104.54 -314.89)"/><path class="cls-2" d="M112.8,454.45c0.39,0.66-.07,1.44-0.26,2-0.17.35-1.18,0.85-1.51,0.46-0.77-1-1.75-2.16-1.22-3.59,1-1.84,2.54.31,3,1.09" transform="translate(-104.54 -314.89)"/><path class="cls-2" d="M195.46,455a1.52,1.52,0,0,1,.26,1.44c-0.59.52-1.64,0.35-2.43,0.26a1.19,1.19,0,0,1-1.12-.79,0.88,0.88,0,0,1,.66-1.18c0.81-.15,2-0.46,2.62.26" transform="translate(-104.54 -314.89)"/><path class="cls-2" d="M109.87,456.55c0.66,0.85,1.29,2,.72,3.06a1.12,1.12,0,0,1-1.25.46,2.76,2.76,0,0,1-1.84-2.4,3.06,3.06,0,0,1,1.11-1.9c0.59-.46,1,0.39,1.25.79" transform="translate(-104.54 -314.89)"/><path class="cls-2" d="M196.68,457.86a1.59,1.59,0,0,1,.39,1.62,0.61,0.61,0,0,1-.76.39c-1-.13-2.54-0.13-2.69-1.38a1.15,1.15,0,0,1,1.51-1.16,2.13,2.13,0,0,1,1.55.52" transform="translate(-104.54 -314.89)"/><path class="cls-2" d="M109.09,461a2.06,2.06,0,0,1,.26,2.08c-0.26.52-.72,0.33-1.11,0.13-0.72-.44-1.92-0.9-1.9-2,0-.57.18-1.46,0.72-1.51a2.89,2.89,0,0,1,2,1.31" transform="translate(-104.54 -314.89)"/><path class="cls-2" d="M198.32,461.64c0.11,0.5-.11,1.27-0.52,1.18-1-.46-2.6-0.2-3.13-1.38-0.13-.39-0.2-1.22.26-1.12,1.29,0.26,2.8.07,3.39,1.31" transform="translate(-104.54 -314.89)"/><path class="cls-2" d="M108.89,465a3,3,0,0,1-.26,1.38c-0.52.66-1.25,0.26-1.84,0a2.72,2.72,0,0,1-1.22-1.57c-0.2-.55,0-1.92.59-1.84s2.54,0.66,2.73,2" transform="translate(-104.54 -314.89)"/><path class="cls-4" d="M198.46,464.31a1.71,1.71,0,0,1-.26,1.57,4.28,4.28,0,0,1-2.6-.85c-0.44-.33-0.61-1.88.07-2,1.09,0.2,2.21.13,2.8,1.25" transform="translate(-104.54 -314.89)"/><path class="cls-2" d="M198.32,467.39a1.74,1.74,0,0,1-.33,1.49,0.92,0.92,0,0,1-.83,0,2.49,2.49,0,0,1-1.38-1c-0.26-.52-0.15-1.71.33-1.68,0.83,0.13,1.94.2,2.21,1.18" transform="translate(-104.54 -314.89)"/><path class="cls-2" d="M109.48,468.68a1.88,1.88,0,0,1-.13,1.77c-0.35.5-1.57-.13-2.3-0.39a2.22,2.22,0,0,1-1-2c0-.74,0-0.87.31-1s2.56,0.52,3.15,1.55" transform="translate(-104.54 -314.89)"/><path class="cls-2" d="M197.93,470.19c0.59,0.59.13,1.22-.07,1.84a1.39,1.39,0,0,1-1.49.5c-0.66-.33-1.31-0.57-1.31-1.29a1.71,1.71,0,0,1,.66-1.64,2.57,2.57,0,0,1,2.21.59" transform="translate(-104.54 -314.89)"/><path class="cls-2" d="M110.46,472c0.52,0.2.63,2.4-.2,2.27-1.18-.13-2.49-0.33-3.08-1.57-0.22-.44-0.57-1-0.13-1.29,1-.59,2.36.13,3.41,0.59" transform="translate(-104.54 -314.89)"/><path class="cls-2" d="M197.08,474a1.91,1.91,0,0,1-.2,1.57c-0.83.33-1.42-.46-1.81-1.12a1.69,1.69,0,0,1-.2-1.38,0.82,0.82,0,0,1,1.11-.2,2.56,2.56,0,0,1,1.09,1.11" transform="translate(-104.54 -314.89)"/><path class="cls-2" d="M110.73,475.74a1.77,1.77,0,0,1,0,1.75c-0.42.55-1.64-.24-2.36-0.63a1.25,1.25,0,0,1-.39-1.77,2,2,0,0,1,1.84-.13,2.57,2.57,0,0,1,.92.79" transform="translate(-104.54 -314.89)"/><path class="cls-2" d="M196.88,477.95c0.07,0.66,0,1.49-.5,1.64s-1.31-1-1.44-1.9c0-.44-0.24-1.71.33-1.68a2.1,2.1,0,0,1,1.62,1.95" transform="translate(-104.54 -314.89)"/><path class="cls-2" d="M110.13,478.41a1.08,1.08,0,0,1,.2,1.38c-0.18.24-1.9-.2-2.36-1.12a0.77,0.77,0,0,1,.33-1,3.65,3.65,0,0,1,1.84.72" transform="translate(-104.54 -314.89)"/><path class="cls-2" d="M194,478.28a8.63,8.63,0,0,1,.33,2.69c0,0.37-.59.39-0.92,0.07a4.1,4.1,0,0,1-.92-3,0.93,0.93,0,0,1,1.51.26" transform="translate(-104.54 -314.89)"/><path class="cls-2" d="M189.71,479.65a2.27,2.27,0,0,1,.13,1.31,0.9,0.9,0,0,1-1.31.39c-0.77-.68-2-2.3-1.12-3.48,1-.81,1.81.92,2.3,1.77" transform="translate(-104.54 -314.89)"/><path class="cls-2" d="M191.66,478.47c0.26,1,1.14,2.08.52,3s-1.22-.79-1.62-1.38-0.85-1.64.07-2.1a0.7,0.7,0,0,1,1,.52" transform="translate(-104.54 -314.89)"/><path class="cls-2" d="M115.93,480.44c0.2,0.48.52,0.72,0.07,1a1.06,1.06,0,0,1-.76.33,5,5,0,0,1-1.77-3.61c0.09-.42.85-0.2,1.18-0.13,0.66,0.2,1,1.57,1.29,2.36" transform="translate(-104.54 -314.89)"/><path class="cls-2" d="M186.26,478.87a4.17,4.17,0,0,1,1,2.56c0,0.59-1,.46-1.42.33-0.9-.2-1.51-1.64-1.57-2.69a0.72,0.72,0,0,1,.52-0.85,1.65,1.65,0,0,1,1.51.66" transform="translate(-104.54 -314.89)"/><path class="cls-2" d="M113.2,479.92a1.73,1.73,0,0,1,.46,2,0.8,0.8,0,0,1-1.11,0c-0.79-.9-1.68-3.13-0.66-3.59,1.25-.33.85,1,1.31,1.57" transform="translate(-104.54 -314.89)"/><path class="cls-2" d="M123.65,479.59c0.2,0.59.42,1.64-.26,2-0.31.13-.59,0.18-1-0.68s-0.87-1.31-.44-2.6c0.61-.81,1.44.66,1.7,1.25" transform="translate(-104.54 -314.89)"/><path class="cls-2" d="M119.08,481.42c0.35,0.31-.39.5-0.72,0.5-1.64,0-1.57-1.79-2.3-2.8a0.51,0.51,0,0,1,.07-0.66c2.23-.59,2,2,3,3" transform="translate(-104.54 -314.89)"/><path class="cls-2" d="M120.78,479a5.71,5.71,0,0,1,.7,2.49c0,0.31-.63.31-1,0.13-0.83-.59-1.79-2.25-1.62-2.75,0.26-.66,1.57-0.5,1.9.13" transform="translate(-104.54 -314.89)"/><path class="cls-2" d="M183.57,479.52c0.07,0.24.15,0.31,0.2,0.5,0.13,0.52.59,1.27,0.07,1.9a0.89,0.89,0,0,1-1.12,0,3.35,3.35,0,0,1-.46-3.41c0.44-.57,1.11.46,1.31,1" transform="translate(-104.54 -314.89)"/><path class="cls-2" d="M197.41,482.19c0,0.26,0,.77-0.33.72A2.61,2.61,0,0,1,194.8,481a1,1,0,0,1,.26-1,2.72,2.72,0,0,1,1.62.72,2.45,2.45,0,0,1,.72,1.49" transform="translate(-104.54 -314.89)"/><path class="cls-2" d="M110.46,481.23c0.2,0.48.48,1.38-.26,1.49a3.67,3.67,0,0,1-2.43-.83,1.6,1.6,0,0,1,0-1.44c0.85-.85,2.3-0.13,2.69.79" transform="translate(-104.54 -314.89)"/><path class="cls-2" d="M109.87,484c0.31,0.44.57,1.2,0.07,1.51-0.92.33-1.64-.22-2.56-0.52a1.46,1.46,0,0,1-.46-1.57c0.07-.72.92-0.59,1.38-0.46a3.51,3.51,0,0,1,1.57,1" transform="translate(-104.54 -314.89)"/><path class="cls-2" d="M197.6,484.94c-0.07.66,0.13,1.57-.52,1.57-1-.13-2.23-0.74-2.34-1.51s0-2,.52-2a3.22,3.22,0,0,1,2.34,1.9" transform="translate(-104.54 -314.89)"/><path class="cls-3" d="M119.82,481.93c0.92,0.55,1.64.76,2.34-.18a0.66,0.66,0,0,0,.85.5c0,0.33.07,0.37,0.11,0.72a23.46,23.46,0,0,0,1.64,6.8,33.25,33.25,0,0,0,4.77,8.55,42.49,42.49,0,0,0,3.91,4,29.75,29.75,0,0,0,7,4.5,30.4,30.4,0,0,0,10,2.56c0,0.7.09,1.92,0.9,2.12a1.65,1.65,0,0,0,.13,2.56c-0.22.24-.92,1.68,0,2.38a1.07,1.07,0,0,0,.57,1.9,1.93,1.93,0,0,0-.52,1.66c-2.14,0-6.93-.2-14.32-3.19-7.13-2.89-14.76-9.73-18.6-16.24A41.21,41.21,0,0,1,112.87,483a1.38,1.38,0,0,0,1.49-.76,1.8,1.8,0,0,0,2.34-.46c0.44,1.11,2.89,1.42,3.13.11" transform="translate(-104.54 -314.89)"/><path class="cls-3" d="M192.84,482.19c0.2,3.48-.66,6.45-1.49,9.6a39.35,39.35,0,0,1-3.91,8.63c-0.81,1.22-1.44,2.14-2.3,3.32A38.74,38.74,0,0,1,180,509.3a26.71,26.71,0,0,1-4.11,3.19,48.51,48.51,0,0,1-7.65,4.22,42.62,42.62,0,0,1-11.61,2.71,1.68,1.68,0,0,0-.92-1.77c0.26-.52.57-1.71-0.18-2.19,0.57-.55,1.14-1.95-0.13-2.51a1.57,1.57,0,0,0-.2-2.16c0.39-.44.87-0.66,0.74-1.38a19,19,0,0,0,3.08-.44,29.66,29.66,0,0,0,17-10.25,30.35,30.35,0,0,0,6.84-15.81,1.47,1.47,0,0,0,2-.74c0.48,0.5,2.58.85,3.17-.28,1,0.59,1.75,1,2.51-.37,0.35,1,1.92,1.29,2.25.68" transform="translate(-104.54 -314.89)"/><path class="cls-2" d="M109.87,486.69a1.72,1.72,0,0,1,0,1.57c-0.46.59-1.18,0.33-1.77,0.2-0.81-.35-2-0.85-1.77-1.95a0.85,0.85,0,0,1,.59-0.79,5.28,5.28,0,0,1,3,1" transform="translate(-104.54 -314.89)"/><path class="cls-2" d="M198.26,488.53a2.59,2.59,0,0,1,.13,1.25,0.6,0.6,0,0,1-.79.2c-0.92-.39-2.14-0.66-2.54-1.7-0.11-.37-0.26-1.53.39-1.44,1,0.2,2.47.77,2.8,1.71" transform="translate(-104.54 -314.89)"/><path class="cls-2" d="M109.68,490.37a1.11,1.11,0,0,1-.63,1.46,5,5,0,0,1-3-1.33c-0.24-.5-0.15-1.81.57-1.84a4.06,4.06,0,0,1,3.08,1.71" transform="translate(-104.54 -314.89)"/><path class="cls-2" d="M198.85,491.72c0.33,0.48.33,1.92-.26,2-1.18,0-1.86-.79-2.73-1.51a1.21,1.21,0,0,1-.26-1.62c0.79-.85,1.86-0.07,2.34.26a2.82,2.82,0,0,1,.92.9" transform="translate(-104.54 -314.89)"/><path class="cls-2" d="M109.28,493.56c0.13,0.2.39,0.63,0.07,0.85-0.92.46-2,0-2.78-.28a1.45,1.45,0,0,1-.61-1.81c0.63-.76,1.53-0.07,2.21.13a2.3,2.3,0,0,1,1.11,1.12" transform="translate(-104.54 -314.89)"/><path class="cls-2" d="M198.78,495.07c0.42,0.46.63,2,.07,2.08-1.25.07-2.43-1.09-3-2.27-0.15-.31-0.15-1.18.2-1.18a5,5,0,0,1,2.73,1.38" transform="translate(-104.54 -314.89)"/><path class="cls-2" d="M109.68,496.36a0.89,0.89,0,0,1-.33,1.12,3.71,3.71,0,0,1-2.69-.26c-0.44-.24-1-1.44-0.46-2,0.92-.59,2.54,0,3.08.39a1.48,1.48,0,0,1,.39.77" transform="translate(-104.54 -314.89)"/><path class="cls-2" d="M198.26,498.39a2.21,2.21,0,0,1-.66,2c-0.66.26-.92-0.59-1.55-0.92a2.16,2.16,0,0,1-.39-2c0.22-.37.68-0.74,1-0.52,0.48,0.61,1.25.72,1.64,1.51" transform="translate(-104.54 -314.89)"/><path class="cls-2" d="M110.73,499.24a1.27,1.27,0,0,1-.59,1.44,3.55,3.55,0,0,1-2.69-.46c-0.46-.52-1-1-0.46-1.9,0.24-.35.39-0.26,0.39-0.26,1.11,0.46,3-.33,3.34,1.18" transform="translate(-104.54 -314.89)"/><path class="cls-2" d="M197.08,501.45a2,2,0,0,1-.07,1.64c-0.15.42-1,.94-1.36,0.59-0.72-.92-1.71-1.84-1.12-3a1,1,0,0,1,1.18-.52,3.35,3.35,0,0,1,1.36,1.29" transform="translate(-104.54 -314.89)"/><path class="cls-2" d="M111.82,502.37a0.59,0.59,0,0,1-.07.59c-0.2.22-3.26,1-4-.72-0.13-.35-0.07-0.85.39-0.85,1.31,0.07,3.13-.37,3.65,1" transform="translate(-104.54 -314.89)"/><path class="cls-2" d="M195.46,504.66a2.61,2.61,0,0,1,.07,1.62c-0.18.31-.72,1.11-1.38,0.59-0.72-.79-1.57-1.75-1-2.93a1.14,1.14,0,0,1,.72-0.66c0.85-.13,1,1,1.57,1.38" transform="translate(-104.54 -314.89)"/><path class="cls-2" d="M112.93,504.6a1,1,0,0,1-.07.72,5.06,5.06,0,0,1-3.19.39,1,1,0,0,1-.59-1.38c0.63-.79,2.27-0.59,3.39-0.39,0,0,.35,0,0.46.66" transform="translate(-104.54 -314.89)"/><path class="cls-2" d="M114.9,507.26a1.38,1.38,0,0,1,0,1.11c-0.09.48-2.36,0.72-3.21-.2a1.37,1.37,0,0,1-.59-1.57c0.31-.66,3.39-0.79,3.8.66" transform="translate(-104.54 -314.89)"/><path class="cls-2" d="M193.89,507.79a1.21,1.21,0,0,1-.92,1.57c-0.79.2-1-.5-1.36-1a2,2,0,0,1-.07-1.84c1.22-1.27,2.23.9,2.34,1.25" transform="translate(-104.54 -314.89)"/><path class="cls-2" d="M191.72,510.09a1.55,1.55,0,0,1,0,1.42c-0.31.39-1,1.18-1.36,0.59-0.52-.92-1.25-2-0.72-3.19,0.26-.39.77-0.81,1.12-0.46a5,5,0,0,1,1,1.64" transform="translate(-104.54 -314.89)"/><path class="cls-2" d="M155.1,509.17c0.59,0.5-.33,1.18-1,1.38a3.67,3.67,0,0,1-2.34.31,0.84,0.84,0,0,1-.13-1.42c1-.46,2.4-1.12,3.45-0.26" transform="translate(-104.54 -314.89)"/><path class="cls-2" d="M117.11,509.82a0.69,0.69,0,0,1,.07,1c-1,.39-2.19.94-3.32,0.13-0.52-.35-1.25-1.29-0.7-1.55,1.22-.48,3-0.66,4,0.39" transform="translate(-104.54 -314.89)"/><path class="cls-2" d="M189.58,512.49a2.74,2.74,0,0,1-.13,2c-0.44.39-.66,1.31-1.38,0.79-0.52-1.11-1.16-2.69-.33-3.93a1.33,1.33,0,0,1,1.25-.26c0.35,0.09.59,1.38,0.59,1.38" transform="translate(-104.54 -314.89)"/><path class="cls-2" d="M155,511.9a1.1,1.1,0,0,1-.94,1.25,3.52,3.52,0,0,1-2.27.07,1,1,0,0,1-.07-1.18,3.94,3.94,0,0,1,2.86-.72,1,1,0,0,1,.42.59" transform="translate(-104.54 -314.89)"/><path class="cls-2" d="M119.08,512.42a1.21,1.21,0,0,1-.66,1.57,2.22,2.22,0,0,1-2.1-.07c-0.46-.52-1.09-0.92-0.9-1.64s2.86-1.11,3.65.13" transform="translate(-104.54 -314.89)"/><path class="cls-2" d="M187.28,515.81a1.93,1.93,0,0,1-1.09,1.38c-0.72.26-.7-0.44-1-0.85a2.15,2.15,0,0,1,.13-2.47c1.44-1.77,1.88.92,2,1.95" transform="translate(-104.54 -314.89)"/><path class="cls-2" d="M155.54,514A1.17,1.17,0,0,1,155,515a10.25,10.25,0,0,1-2.93.76c-0.46.09-.52-0.68-0.26-1a6.8,6.8,0,0,1,3.45-1.25,0.6,0.6,0,0,1,.31.42" transform="translate(-104.54 -314.89)"/><path class="cls-2" d="M121.81,515c0.13,1.16-1,1.31-1.88,1.68a2.05,2.05,0,0,1-2-.46c-0.26-.33-0.9-0.9-0.39-1.16a8.84,8.84,0,0,1,2.43-.85c0.7-.07,1.62-0.07,1.88.79" transform="translate(-104.54 -314.89)"/><path class="cls-2" d="M184.75,517.06a2,2,0,0,1-.26,1.64c-0.52.59-1.64,1-2,.46a4.86,4.86,0,0,1-.26-2.75,1.29,1.29,0,0,1,1.18-.72c1.09,0,1.07.87,1.31,1.38" transform="translate(-104.54 -314.89)"/><path class="cls-2" d="M155.34,516.45a0.89,0.89,0,0,1-.83,1.07c-0.79.15-1.68,0.66-2.47,0.07a0.55,0.55,0,0,1-.2-0.85c0.85-.72,2.75-0.74,3.13-0.79s0.37,0.5.37,0.5" transform="translate(-104.54 -314.89)"/><path class="cls-2" d="M124.56,517c0.35,0.57-.59,1-1,1.18-0.85.26-2.12,0.63-2.89,0.2-0.33-.26-0.7-0.59-0.33-0.92,1.18-.72,3-1.84,4.26-0.46" transform="translate(-104.54 -314.89)"/><path class="cls-2" d="M181.36,517.58a3.58,3.58,0,0,1,0,3.32,1.63,1.63,0,0,1-1.12.28,0.33,0.33,0,0,1-.35-0.33c-0.13-1.18-.57-3.67,1.46-3.28" transform="translate(-104.54 -314.89)"/><path class="cls-2" d="M127.82,519c0.42,1-.81,1.27-1.64,1.66s-2,.57-2.6-0.11c-0.39-.42-0.79-1-0.26-1.46,1.22-.79,3.39-2.06,4.5-0.09" transform="translate(-104.54 -314.89)"/><path class="cls-2" d="M155.5,518.76a1.11,1.11,0,0,1-.79,1.25c-0.85.24-2.47,0.42-2.6-.26a1.42,1.42,0,0,1,.33-1.18c0.18-.22,2.47-1,3.06.2" transform="translate(-104.54 -314.89)"/><path class="cls-2" d="M179,519.09c0.39,0,.72,2.47-0.33,3.13a1.61,1.61,0,0,1-1,.13,0.23,0.23,0,0,1-.2-0.2c-0.18-1.25-.24-3.32,1.51-3.06" transform="translate(-104.54 -314.89)"/><path class="cls-2" d="M130.55,520.64a1.19,1.19,0,0,1,0,1.31,2.44,2.44,0,0,1-1.68,1.18c-0.92,0-2.06,0-2.23-1s1.12-1.79,2-1.9c0.72,0,1.42-.13,1.88.46" transform="translate(-104.54 -314.89)"/><path class="cls-2" d="M176.66,520.19a3,3,0,0,1-.26,2.56c-0.33.39-1.12,0.79-1.31,0.33a2.63,2.63,0,0,1,.13-2.69,1.66,1.66,0,0,1,1.44-.2" transform="translate(-104.54 -314.89)"/><path class="cls-2" d="M162.56,522.15a4,4,0,0,1-2,1.7c-0.46.13-1,.15-1-0.46a2.86,2.86,0,0,1,1.84-2.43,0.85,0.85,0,0,1,1.12,1.18" transform="translate(-104.54 -314.89)"/><path class="cls-2" d="M174,521.89c-0.13.79,0.26,1.77-.33,2.3a1.09,1.09,0,0,1-1.49.26c-0.52-.92.06-1.9,0.33-2.69,0.18-.5,1.75-1.12,1.49.13" transform="translate(-104.54 -314.89)"/><path class="cls-2" d="M159.15,522a1.47,1.47,0,0,1-1,1.51,2.35,2.35,0,0,1-1.77-.07,1.07,1.07,0,0,1-.07-1.31c0.66-.79,2.54-1.38,2.86-0.13" transform="translate(-104.54 -314.89)"/><path class="cls-2" d="M165.88,522.15a3.36,3.36,0,0,1-.85,2.1,2.44,2.44,0,0,1-1.57.33c-0.46,0-1-.52-0.83-0.85,0.57-.79.5-2.3,1.88-2.36,0.59-.07,1.44.24,1.38,0.79" transform="translate(-104.54 -314.89)"/><path class="cls-2" d="M134,522.35c0.2,0.59-.77,1.64-1.38,1.9s-1.81.5-2.3-.07c-0.63-1,.7-1.81,1.44-2.36a1.71,1.71,0,0,1,2.23.52" transform="translate(-104.54 -314.89)"/><path class="cls-2" d="M155.1,522a1.48,1.48,0,0,1-1,1.77,1.17,1.17,0,0,1-1.09-.2,0.69,0.69,0,0,1-.07-0.85c0.35-.74,2-1.16,2.14-0.72" transform="translate(-104.54 -314.89)"/><path class="cls-2" d="M171.57,522.15c-0.2,1-.13,2.14-1.38,2.73-0.31.15-.87,0.28-0.92,0.07a3.21,3.21,0,0,1,1.25-3.06c0.46-.24,1.07-0.2,1,0.26" transform="translate(-104.54 -314.89)"/><path class="cls-2" d="M168.68,522.28c0.46,1.11-.26,2.23-1.16,3a1.24,1.24,0,0,1-1.38-.2c-0.72-.9.66-1.55,0.72-2.47a1.12,1.12,0,0,1,1.81-.33" transform="translate(-104.54 -314.89)"/><path class="cls-2" d="M148.65,522.28c0.37,0.92-.17,1.68-0.59,2.56a1,1,0,0,1-1.62.37c-0.5-.79,0-2.4,1-3.13a0.91,0.91,0,0,1,1.18.2" transform="translate(-104.54 -314.89)"/><path class="cls-2" d="M151.78,522.87a1.67,1.67,0,0,1-.52,1.44c-0.33.28-1.57,0.57-2-.07a1.76,1.76,0,0,1,.59-1.64c0.52-.46,1.71-0.66,1.9.26" transform="translate(-104.54 -314.89)"/><path class="cls-2" d="M145.77,523.27c-0.2.92-.46,2-1.44,2.4-0.5.22-1.2,0.44-1.29-.26a3.78,3.78,0,0,1,1.29-2.86c0.52-.44,1.71-0.26,1.44.72" transform="translate(-104.54 -314.89)"/><path class="cls-2" d="M136.89,523.07a2.8,2.8,0,0,1-1.51,1.95c-0.61.24-1.62,0.26-1.62-.37a2.52,2.52,0,0,1,1.49-2.1c0.59-.2,1.71,0,1.64.52" transform="translate(-104.54 -314.89)"/><path class="cls-2" d="M140,523.46c0.18,0.39-.39,1.4-0.83,1.95-0.66.59-1.64,1.25-2.3,0.72-0.9-1,.52-2.08,1.12-2.86a1.36,1.36,0,0,1,2,.2" transform="translate(-104.54 -314.89)"/><path class="cls-2" d="M142.64,523.14c0.33,0.79-.33,2-1.18,2.6-0.42.26-.92,0.57-1.25,0.13-0.52-.72,0-1.42.46-2s1.62-1.31,2-.72" transform="translate(-104.54 -314.89)"/><polyline class="cls-5" points="23.52 156.43 40.29 156.43 40.29 139.67 57.03 139.67 57.03 156.43 73.8 156.43 73.8 173.18 57.03 173.18 57.03 189.93 40.29 189.93 40.29 173.18 23.52 173.18"/><polyline class="cls-2" points="17.9 169.97 12.28 173.18 18.56 172.48 19.1 174.29 13.53 177.44 20 176.74 20.68 178.53 11.82 178.82 11.37 177.31 17.05 173.97 10.51 174.6 10.05 173.07 17.44 168.13"/><path class="cls-2" d="M126.88,496.07l-1-1.73-8.72,1.84,0.92,1.51,1.75-.37,1.6,2.67-1.14,1.38,0.9,1.51m3.5-6.62-2.23,2.65L121.31,497Z" transform="translate(-104.54 -314.89)"/><path class="cls-2" d="M129.09,503c0.52-.44.61-1.29-0.18-2.19-0.55-.63-1.18-0.9-1.73-0.48a0.68,0.68,0,0,0-.28,1,8.51,8.51,0,0,0,1,1.9,3.75,3.75,0,0,1,.7,2,2.64,2.64,0,0,1-3.08,2.08,5.06,5.06,0,0,1-2.21-1.55,4.26,4.26,0,0,1-.94-1.95,3,3,0,0,1,.83-2.32l1.14,1.25a1.21,1.21,0,0,0-.42.85,2.1,2.1,0,0,0,.68,1.51,2.25,2.25,0,0,0,1.2.72,1,1,0,0,0,1.07-.92c0.07-.79-1-2-1.51-3.08a2.06,2.06,0,0,1,.72-2.69c1.09-.79,2.47-0.72,3.85.79a3.68,3.68,0,0,1,1.09,2.84,2.43,2.43,0,0,1-.88,1.44" transform="translate(-104.54 -314.89)"/><path class="cls-2" d="M134.42,507.66c0.42-.55.33-1.38-0.61-2.1-0.68-.5-1.36-0.63-1.81-0.11a0.66,0.66,0,0,0-.07,1,9,9,0,0,0,1.4,1.66,4,4,0,0,1,1.11,1.86,2.65,2.65,0,0,1-2.6,2.67,5,5,0,0,1-2.47-1.07,4,4,0,0,1-1.33-1.7,2.91,2.91,0,0,1,.33-2.43l1.38,1a1.22,1.22,0,0,0-.22.92,2,2,0,0,0,1,1.31,2.07,2.07,0,0,0,1.31.48,1,1,0,0,0,.85-1.14c-0.11-.79-1.44-1.77-2.1-2.69a2,2,0,0,1,.13-2.8c0.9-1,2.27-1.22,3.94,0A3.81,3.81,0,0,1,136.3,507a2.44,2.44,0,0,1-.57,1.62" transform="translate(-104.54 -314.89)"/><polyline class="cls-2" points="38.45 194.28 37.86 195.61 33.88 193.79 33.1 195.54 36.77 197.21 36.18 198.52 32.51 196.85 31.61 198.82 35.76 200.72 35.17 202.04 29.45 199.43 32.92 191.76"/><path class="cls-2" d="M142.05,517.67l1.7,0.35,0.68-3.26,1.42,0.28c0.59,0.13,1,3.37,1.12,3.65l1.84,0.37s-0.85-4.22-1.2-4.22a2.29,2.29,0,0,0,2.1-1.09,2.74,2.74,0,0,0,.26-1.66,1.93,1.93,0,0,0-1.62-1.7l-4.57-1m1.4,1.77,2.3,0.48a0.87,0.87,0,0,1,.83,1.14,1.14,1.14,0,0,1-1.27,1l-2.32-.48Z" transform="translate(-104.54 -314.89)"/><polyline class="cls-2" points="54.76 195.17 58.06 200.79 57.3 194.54 59.16 193.93 62.39 199.52 61.65 193.05 63.46 192.33 63.81 201.23 62.26 201.71 58.83 196.02 59.5 202.56 57.95 203.02 52.88 195.63"/><path class="cls-2" d="M171.22,504.68l-1.68,1.12,2.21,8.64,1.46-1-0.44-1.73,2.6-1.73,1.42,1.09,1.46-1m-6.69-3,2.73,2.1-1.79,1.18Z" transform="translate(-104.54 -314.89)"/><path class="cls-2" d="M182.23,501.67a3.3,3.3,0,0,1,.94,2.4,4.51,4.51,0,0,1-1.09,2.38,3.55,3.55,0,0,1-4.59.7,8.93,8.93,0,0,1-1.2-.9,5.58,5.58,0,0,1-1-1.25,3.51,3.51,0,0,1,.42-4.57,3.61,3.61,0,0,1,2-1.22,2.7,2.7,0,0,1,2.58.63l-1.11,1.22a1.74,1.74,0,0,0-2.56.5,2,2,0,0,0-.15,2.14,6.19,6.19,0,0,0,.9,1.18,3.84,3.84,0,0,0,1.46,1,2.21,2.21,0,0,0,1.6,0,1.54,1.54,0,0,0,.57-0.42,2.46,2.46,0,0,0,.44-0.59,1.63,1.63,0,0,0-.26-2" transform="translate(-104.54 -314.89)"/><polyline class="cls-2" points="74.31 182.23 75.16 180.72 77.74 182.47 79.31 179.52 76.43 178.32 77.17 176.83 84.84 180.13 84.08 181.73 80.58 180.2 79 183.15 82.22 185.25 81.39 186.69"/><polyline class="cls-2" points="79.2 169.48 80.6 169.83 79.99 172.22 86.74 173.97 86.31 175.63 79.55 173.9 78.92 176.37 77.52 176"/><path class="cls-6" d="M167.46,428.39c0.87-2.74,5.75-3.76,9-7.09,1.32-1.34,1.94-1.54,3.18-2.68,4.83-4.42.6-3.53,11.39-7.66,5.91-2.26,11.11-5.54,16.82-8.09,4.24-1.9,15.79-3.41,17.1-8.31,4.48,2.15,11.66-.38,16-1.57,1.53-.42,3.45-0.77,5-1.35,7.16-2.67,12.93-7.72,19.86-10.92,3.56-1.64,6.38-4,9.86-5.77,0.88-.45,1.33-0.59,2.3-1.12l4.24-2.11c3-1.79,4.58-3.94,8.26-4.45,22-3,14.09-6.54,23.79-7.48,4.91-.47,10.44-2.27,15.28-3.29,4-.85,5.25-2.84,8.92-0.72a21.25,21.25,0,0,0,4.27,2.09c1.63,0.59,2.86,1.22,4.57,1.78,9.65,3.19,17.31,2.24,24.69-2.71a35.87,35.87,0,0,0,7.9,4.31c5.87,1.87,14.86,1.34,20.24-2.06a9.22,9.22,0,0,0,2.84-3c1.17-1.7,2.07-2.09,2.24-4.11,3.49,0.08,8.41,2.93,19.54,2.93,3.44,6.49,13.93,7.65,20.84,9.94,5,1.65,6.41,2.42,12,3.14,2,0.26,3.57-.19,4.49,0,3.11,0.73,7.21,4.2,16.84,3.49,4.21-.31,5.48-0.53,6.37-4.37-8.16-5.46-5.27-4-12.35-9.63-5.35-4.26-7.65.91-16.06-4.94-4.33-3-8.44-6.26-13-9-6.28-3.76-7.76,2.15-15.63-4.4-1.92-1.6-10.72-7.54-13.31-8.68-2.38-1-4.82-2.6-7.35-3.39-2-.61-3.06-0.21-4.72-0.65-2.05-.55-6.36-6.9-21.15-6.69-4.77.07-4.14-1.17-7.79-3a17.22,17.22,0,0,0-9.31-2,60,60,0,0,0-26.21,6.53c-2.89,1.44-4.08,2.9-6.71,4.53-7.39,4.59-5.6-.49-19.25-3.8-11.69-2.83-11.14-3.27-24-3.33-5.85,0-20.34.9-25.29,2.06-6.49,1.53-10.9.82-23.38,4.46-8.41,2.45-17.15,4.39-24.93,8.29-11.64,5.83-3.74,1.72-15.44,0-12.55-1.87-24.76,1.79-36.36,6.36-6,2.39-11.35,4.13-16.81,7.62-4,2.53-4.89,9.52-4.45,13.3C142.42,366,146,372,150,374.74c6.48,4.41,15.35,3.59,22.49,1.06a47.35,47.35,0,0,1,4.6-1.26c3-.78,4.67-2,7.75-3,3.52-1.15,4.61-2.13,7.41-3.83,6.84-4.13,13.64-7.79,17.4-15.33l1.68-3.69c0.47-1.18.9-3.63,1.34-4.52,0.81-1.65,3.48-2.27,5.06-2.76,3.54-1.11,6.46-2.85,9.94-4.23,3-1.19,22.35-6.25,25.83-6.9,3.85-.72,16.24-3.53,18.35-3.63l9.75-.47c4.35-.16,6.7.44,10.79,0.47a26.94,26.94,0,0,1,9.42,1.33,2,2,0,0,1,.34.15c-7.22,1.68-7.75,1.48-13.31.6-2.6-.41-4.58.24-7.2,0.39-9.15.54-23.46,11-28.84,18.06A118.07,118.07,0,0,1,242,359.75c-2.77,2.73-4.79,5.27-7.58,8.06l-5.63,6.1a7.17,7.17,0,0,0-1.82,2.57c-4.67-.39-9.86-2-15.05-0.4l-13,4.62a20.51,20.51,0,0,0-5.63,3.17,37.78,37.78,0,0,0-4.58,4.21,69.87,69.87,0,0,0-8.39,9.69c-5.13,7.5-5.85,9.19-15.63,10.75-8.61,1.37-11.43,4-14.27,12.6-2,5.41-3.8,9.09-4.61,12.6-5.86,25.26,17,5.81,21.66-5.32m162.23-97.94c1.75-1.61,6.68-3.7,9.09-5.28,7.61-5,27.18-9.59,35-4.79-2.35,1.81-5.2,1-5.77,4.86,3.93,0,8.78-2.45,13.25-2.45a39,39,0,0,1,17.8,4.62c4,2.34-.66,1.47,7.07,3.22,9.54,2.16,8.44,4.35,13,7,2.28,1.34,4.8,1.9,6.83,3.42s3.11,2.87,5.91,4.36c2,1.09,4.51,2.72,7.12,2.74-0.06-3.35.26-1-1.36-2.84,8.64-.69,18.4,13.53,28.9,14.89,3.53,0.46.86-.47,2.94-1.07,1.6-.47,3.48,2.69,7.11,5.56,0.88,0.69,1.54,1.18,2.52,1.9s1.39,0.63,1.78,2c-5.67.72-5.59,0.63-12.47-1.17A6.13,6.13,0,0,1,465.6,366c-0.81-.92,0-0.18-0.85-1.73a0.64,0.64,0,0,1-.19-0.29,0.5,0.5,0,0,0-.2-0.29c-2.26.47-2,1.19-4.45,0.62-10.19-2.36-23.7-3.55-31.55-9.44,1.57-2,1.82.19,1.85-3.38-3.37-1-3.16.48-6.4,0.48-9.83,0-13.44-2-21.39-4.47-9.6-3-11.22-1.16-21-3,3.39-4-1.27-2.51-3.39-1.12s-3.58,3.09-6.62,2.34c-6.7-1.67-9.24.17-15.77-3.31-2.3-1.22-4.51-1.58-7.21-2.57Zm-32.8,2.67C324,327.91,316.79,337.31,341,346c3.08,1.1,5.32,2.36,8.2,3.51s5.7,1.76,8.58,3.13a51.49,51.49,0,0,0,8.69,2.85c-4.44,4.7-8.25,2.53-13.83.79-8.19-2.55-7.34-2.66-13.88-5.17-5.41-2.07-5.93,2.39-14.27,3.69s-8.4,1.46-16.06,3c-2.14-3.83-4.6-7.54-6.83-11.54Zm-152,24.31c0-6.59,6.1-9.16,11.23-11.65,2.79-1.36,5.51-2,8.61-3.12,15.36-5.72,11.69-4,27.82-6.38,4.14-.6,10.13,1.45,14,2.95a11.1,11.1,0,0,1,3.17,2c0.07,4.65-.3,5.64-3.08,9.57-5.57,7.87-8.54,9.23-17.11,13.65s-32.75,17.4-40.59,5.45C145.76,365.06,144.92,364,144.92,357.43Zm108.55-5.54c5.33-7.95,7.88-9.3,16.26-14.18,13.63-7.93,14.66-5.5,23.5-5.07,1.69,5.8,2.73,9.78,5.23,14.79a67.24,67.24,0,0,0,3.39,6.38c0.91,1.44,3.3,4.55,3.43,5.66-1.15,1.27-11.16,4.11-13.57,4.56-4.05.75-3.75,0.3-6.75,2.1-6.65,4-3.68,4.43-11.8-1.71a29,29,0,0,0-3-2.39c-1.28-.8-2-1.3-3.26-2.1C262.36,357,257.79,355.06,253.48,351.89Zm136.13,7.39c-4.48.23-10-.84-12.75-2.8-4-2.79-.7-3.15,2.6-8.66,4,0.45,6.23,1.41,12.11,1.37a43.56,43.56,0,0,1,11.6,2c-1.63,5.08-6.46,6.25-9,7.5a9.45,9.45,0,0,0-.4-2.5c-0.7-1.93.13-.6-1.23-1.66C390.34,355.75,392,356.18,389.61,359.28Zm-167.17,32.3c-3,6-5.9,4-13.92,7-10.11,3.77-25.55,11.21-33.58,18.72-1.23,1.15-4.69,4.35-5.66,5-5.82-7.34-.49,4.13-7.85,11.33-2,1.94-3.38,4.22-5.39,5.83-8,6.41-10.2,2.49-7.59-6.16a49.75,49.75,0,0,1,3.5-8.19c2.72-5.73,2.8-11.81,11-11.91,11.26-.13,14.29-5.69,20.7-13.57,1-1.18,1.39-2.23,2.3-3.56a35.26,35.26,0,0,1,2.61-3.25c8.84-10.2,12.06-9.35,21.31-12.85A29.22,29.22,0,0,1,220.09,378c4.68,0,8.63,3.84,9.7.32,0.63-2.06.14-1.55,1.46-2.9,1.07-1.1,1.88-1.82,3-2.9,5.32-5.32,12.8-15.46,17.14-18.42,1.91,1.31,3.89,2.78,6,4.18,4.84,3.24,14.11,8.35,17.8,13.71-6.65,4.2-12.29,6.35-18.13,9.63-2.07,1.17-3.69,2.52-5.79,3.48-4.23,1.93-15.85,6.41-20.78,7.09C226.88,392.7,226.33,391.51,222.44,391.58Z" transform="translate(-104.54 -314.89)"/><path class="cls-2" d="M254.29,494.21c-0.79-.38-7.66-0.92-9.24-0.88a33.09,33.09,0,0,1-3.47.39c-6.56,0-4.88-1.87-8.5-4.69-10.71-8.34-15.79,1.71-23.11,4.34-3.3,1.19-4.54-.3-4.54,3.77,0,2.77,4.09,2,5.86,2,6.32,0,11.11-11.81,19.18-4.53,7.19,6.49-1.33,5,19.9,5,0.25,0.38,7.47,13.72,8.8,3.91,0.27-2,.59-3.92.83-5.52,1.11-7.58,4.54-26.59,4.54-33.08H265a132.17,132.17,0,0,0,1.05,13.6l1.8,20.18a194.16,194.16,0,0,1,1.54,20.93c1.62,1.08,2,1.47,3.91,1.47s2.75-2.39,3.23-4.1c1.46-5.27,4.67-12.47,5.08-17.39,7.82,0,12.47,1.49,17-2s14.34-14.1,19.12-14.1c7.63,0,14.25,13.69,20,16.63,2,1,6,.32,8.81.47,3.28,0.18,4.74,1.33,8-.29,6.06-3,11.19-10,17.52-4.24,7.19,6.49-1.33,5,19.9,5,0.25,0.37,7.47,13.72,8.8,3.91l2.46-16.59c0.49-3.55,1-7,1.52-10.69,0.48-3.37,1.38-7.52,1.38-11.32h0.49a132.18,132.18,0,0,0,1.05,13.6c0.42,4,.74,9.52,1.26,13.4,0.88,6.61,2.09,22.14,2.09,27.71,1.62,1.08,2,1.47,3.91,1.47,3.16,0,4.28-7.58,4.89-9.77,0.94-3.42,3.13-8.23,3.42-11.72,7.81,0,12.47,1.49,17-2,1.31-1,2.52-1.91,3.83-3s2.1-2.05,3.2-3.15c2.65-2.67,8.15-7.94,12.09-7.94,8.25,0,16.26,17.1,22,17.1,2.91,0,9.28,1.17,9.28-3.42,0-1.59-2-2.71-3.45-2.9-4.68-.61-6,0.86-9.33-3.38-3.52-4.47-7.71-9.8-12.86-12.54-3.54-1.88-8.56-1.23-11.59.64a51,51,0,0,0-9.79,7.8c-7.86,7.95-7.93,6.59-19.42,6.47-6.16-.07-5.66,1.4-7.13,6.06-0.18.58-.29,1-0.46,1.49L416,504c0-4.25-3.83-50.64-4.12-52.55-0.91-6.19.82-15.35-5.17-15.35-1.7,0-1.7,1-2,2.36s-0.63,2.3-.83,3.57l-5.72,38.24c-0.81,5.24-2.16,10.23-2.16,15.43-1.77-.85-14.12-1-17.59-1-3-4.47-7.39-8.58-15-6.71-6.64,1.63-8.38,7.68-16.11,6.58a34.23,34.23,0,0,0-5.05-.33c-3.76-.06-4.94-2.38-7-4.77-1.07-1.27-1.78-1.75-2.79-3.08a29.52,29.52,0,0,0-5.93-5.8c-4.78-3.56-9.2-5-14.69-1.64a23.7,23.7,0,0,0-5.15,3.64,123,123,0,0,1-9.18,8.4c-4.34,3.3-6.72,2.31-14.88,2.22-3.71,0-5.07-.32-6.14,2.65l-2.16,6.64c0-4.07-3.84-50.73-4.1-52.57-0.39-2.73-1-5.7-1.2-8.08-0.45-4.53.63-7.26-4-7.26-2.91,0-2.55,7.4-3.07,10.12-2.11,11.19-3.79,22.8-5.52,34.05-0.81,5.24-2.16,10.23-2.16,15.43" transform="translate(-104.54 -314.89)"/><path class="cls-2" d="M329.69,330.45l18.79,9.45c2.7,1,4.91,1.35,7.21,2.57,6.53,3.47,9.07,1.64,15.77,3.31,3,0.76,4.57-1,6.62-2.34s6.78-2.91,3.39,1.12c9.74,1.79,11.35,0,21,3C410.37,350,414,352,423.81,352c3.24,0,3-1.45,6.4-.48,0,3.57-.28,1.41-1.85,3.38,7.85,5.9,21.35,7.08,31.55,9.44,2.49,0.58,2.18-.15,4.45-0.62a0.5,0.5,0,0,1,.2.29,0.64,0.64,0,0,0,.19.29c0.82,1.55,0,.8.85,1.73a6.13,6.13,0,0,0,2.82,1.47c6.88,1.8,6.8,1.89,12.47,1.17-0.39-1.4-.7-1.24-1.78-2s-1.64-1.2-2.52-1.9c-3.64-2.87-5.51-6-7.11-5.56-2.08.6,0.6,1.53-2.94,1.07-10.5-1.36-20.26-15.58-28.9-14.89,1.62,1.87,1.3-.51,1.36,2.84-2.61,0-5.07-1.65-7.12-2.74-2.79-1.49-3.75-2.74-5.91-4.36s-4.55-2.08-6.83-3.42c-4.54-2.67-3.44-4.86-13-7-7.73-1.75-3.1-.88-7.07-3.22a39,39,0,0,0-17.8-4.62c-4.46,0-9.32,2.47-13.25,2.45,0.57-3.91,3.42-3.05,5.77-4.86-7.86-4.8-27.43-.21-35,4.79-2.41,1.58-7.34,3.67-9.09,5.28" transform="translate(-104.54 -314.89)"/><path class="cls-2" d="M222.44,391.58c3.89-.07,4.44,1.12,8,0.62,4.93-.68,16.54-5.16,20.78-7.09,2.1-1,3.72-2.31,5.79-3.48,5.84-3.28,11.47-5.44,18.13-9.63-3.69-5.36-13-10.47-17.8-13.71-2.09-1.4-4.08-2.87-6-4.18-4.34,3-11.82,13.1-17.14,18.42-1.09,1.09-1.89,1.8-3,2.9-1.32,1.35-.83.84-1.46,2.9-1.07,3.52-5-.32-9.7-0.32a29.22,29.22,0,0,0-10.25,1.92c-9.25,3.5-12.47,2.65-21.31,12.85a35.26,35.26,0,0,0-2.61,3.25c-0.91,1.33-1.34,2.39-2.3,3.56-6.41,7.88-9.44,13.44-20.7,13.57-8.16.1-8.24,6.17-11,11.91a49.75,49.75,0,0,0-3.5,8.19c-2.61,8.65-.44,12.57,7.59,6.16,2-1.61,3.41-3.89,5.39-5.83,7.36-7.19,2-18.67,7.85-11.33,1-.62,4.43-3.81,5.66-5,8-7.51,23.46-15,33.58-18.72,8-3,10.87-1,13.92-7" transform="translate(-104.54 -314.89)"/><path class="cls-7" d="M253.48,351.89c4.31,3.17,8.88,5.12,13.45,8.05,1.24,0.79,2,1.29,3.26,2.1a29,29,0,0,1,3,2.39c8.12,6.13,5.15,5.69,11.8,1.71,3-1.8,2.7-1.34,6.75-2.1,2.41-.45,12.42-3.29,13.57-4.56-0.13-1.11-2.52-4.22-3.43-5.66a67.24,67.24,0,0,1-3.39-6.38c-2.51-5-3.54-9-5.23-14.79-8.85-.43-9.87-2.86-23.5,5.07-8.38,4.87-10.94,6.23-16.26,14.18" transform="translate(-104.54 -314.89)"/><path class="cls-7" d="M144.92,357.43c0,6.54.84,7.63,4,12.51,7.84,12,32.07-1,40.59-5.45s11.54-5.78,17.11-13.65c2.78-3.94,3.15-4.93,3.08-9.57a11.1,11.1,0,0,0-3.17-2c-3.85-1.5-9.84-3.55-14-2.95-16.13,2.34-12.46.65-27.82,6.38-3.1,1.15-5.81,1.76-8.61,3.12-5.13,2.49-11.23,5.05-11.23,11.65m46-19.64c-0.1,6.85-1.18,6.26-9.46,10.28a21.47,21.47,0,0,1-7.64,2.17c-11.3,1.74-10.59-3.68-6-6.53C174.08,339.82,182.52,337.8,190.88,337.79ZM175,367c-0.51-4,.52-4.88,3.12-6.6,3.27-2.15,19.67-13.46,22.29-7.65,1.64,3.64-7.37,7.95-10.74,9.94-2.39,1.41-4.22,2.48-6.9,3.86C179,368.5,179.06,368.89,175,367Zm-14.41,1.65c0,6.14-7,1-8.88-.52-5-4.09-6.55-15.78-.49-13.3C152.76,355.46,160.63,363.8,160.62,368.66Z" transform="translate(-104.54 -314.89)"/><path class="cls-2" d="M296.9,333.12l4.7,13.16c2.23,4,4.69,7.71,6.83,11.54,7.66-1.59,7.76-1.76,16.06-3s8.86-5.76,14.27-3.69c6.54,2.5,5.69,2.62,13.88,5.17,5.58,1.74,9.39,3.91,13.83-.79a51.49,51.49,0,0,1-8.69-2.85c-2.88-1.37-5.54-1.92-8.58-3.13s-5.12-2.41-8.2-3.51c-24.2-8.68-17-18.08-44.1-12.86" transform="translate(-104.54 -314.89)"/><path class="cls-2" d="M389.61,359.28c2.36-3.1.73-3.53,3-4.74,1.36,1.06.53-.28,1.23,1.66a9.45,9.45,0,0,1,.4,2.5c2.52-1.25,7.35-2.41,9-7.5a43.56,43.56,0,0,0-11.6-2c-5.88,0-8.13-.91-12.11-1.37-3.3,5.52-6.56,5.87-2.6,8.66,2.78,2,8.27,3,12.75,2.8" transform="translate(-104.54 -314.89)"/><path class="cls-2" d="M342.71,520.6c6.68,0,9.77,1,9.77-3.91,0-1.48-.85-1.66-2-2,3.11-2.95.73-5.86-1-5.86h-6.84m4.89,4.89h-2.44v-2.93h2.44c1.31,0,1.44.7,2,1.46C349,513.05,348.9,513.76,347.6,513.76Zm0.49,4.89h-2.93v-2.93h2a2.84,2.84,0,0,1,2.93,1.47C349.53,517.94,349.39,518.64,348.09,518.64Z" transform="translate(-104.54 -314.89)"/><path class="cls-2" d="M365.18,520.6h2.44v-4.89c3.13,0.26,3.4,1.94,5.37,4.89h2.93a43.83,43.83,0,0,0-3.42-5.37,3.22,3.22,0,0,0-1-6.35h-6.35m5.37,4.89h-2.93v-2.93h2.93c1.31,0,1.45.7,2,1.46C372,513.05,371.86,513.76,370.56,513.76Z" transform="translate(-104.54 -314.89)"/><path class="cls-2" d="M376.42,513.76c0,6,2.18,6.84,7.33,6.84,4.76,0,3.91-3.44,3.91-6.35h-5.37v2h2.93c-0.2,2.36.37,0.8-.72,1.73-4.69,4-8.54-7.1-2.21-7.1,1.37,0,1.65.79,2.26,1.22,0.85,0.6-.09.5,1.3,0.69,1.62,0.22,1.07-.08,1.35-0.36,3.2-3.2-10.77-6.59-10.77,1.38" transform="translate(-104.54 -314.89)"/><path class="cls-2" d="M309.49,520.6c6.33,0,9.77,1,9.77-6.35,0-6.52-5.07-5.37-9.77-5.37m6.35,9.28c-2.37.55-.82,0.49-3.91,0.49v-7.82c3.09,0,1.53-.06,3.91.49C317,513.78,317.19,515.67,315.84,518.15Z" transform="translate(-104.54 -314.89)"/><path class="cls-2" d="M331.48,520.6h2v-8.31c1.37,1.58,3.48,6.48,3.91,8.31h3.42V508.87h-2v8.31a2.26,2.26,0,0,1-.62-0.84l-1.82-3.56c-1.94-3.94-1.19-3.91-4.89-3.91" transform="translate(-104.54 -314.89)"/><path class="cls-2" d="M287,513.76c0,10.35,11.24,7.46,11.24,2,0-4.45-1.07-6.84-6.35-6.84a5,5,0,0,0-4.89,4.89m2.44,1a6.14,6.14,0,0,1,.89-2.53c2.18-3,5.46-.31,5.46,2.53,0,1.86-1.34,3.68-3,3.79C290.89,518.66,289.46,516.62,289.46,514.73Z" transform="translate(-104.54 -314.89)"/><polyline class="cls-2" points="216.19 205.7 224.98 205.7 224.98 203.75 218.63 203.75 218.63 200.33 224.49 200.33 224.49 198.38 218.63 198.38 218.63 195.93 224.98 195.93 224.98 193.98 216.19 193.98"/><path class="cls-2" d="M353.95,516.69c0,5.5,9.28,4.86,9.28,1v-8.79h-2.44c0,4.3.35,5.68-.49,9.28-2.06.49-1.36,0.49-3.42,0-0.84-3.61-.49-5-0.49-9.28h-2.44" transform="translate(-104.54 -314.89)"/><polyline class="cls-2" points="195.18 205.7 203.49 205.7 203.49 203.75 197.62 203.75 197.62 193.98 195.18 193.98"/></svg>